<?xml version="1.0" encoding="utf-8"?>
<!-- Generator: Adobe Illustrator 27.9.0, SVG Export Plug-In . SVG Version: 6.00 Build 0)  -->
<svg version="1.1" id="Ebene_1" xmlns="http://www.w3.org/2000/svg" xmlns:xlink="http://www.w3.org/1999/xlink" x="0px" y="0px"
	 viewBox="0 0 412.38 146.04" style="enable-background:new 0 0 412.38 146.04;" xml:space="preserve">
<style type="text/css">
	.st0{fill:#FFFFFF;}
	.st1{clip-path:url(#SVGID_00000026847919546703386440000008474475823213036445_);fill:#FFFFFF;}
	.st2{clip-path:url(#SVGID_00000062897631293456581150000015468513706195135652_);fill:#FFFFFF;}
</style>
<polygon class="st0" points="83.71,43.82 83.71,51.12 93.01,51.12 93.01,88.02 56.11,43.82 36.41,43.82 36.41,51.12 45.01,51.12 
	45.01,104.62 36.31,104.62 36.31,112.02 63.01,112.02 63.01,104.62 53.51,104.62 53.51,64.72 93.01,112.02 101.51,112.02 
	101.51,51.12 109.51,51.12 109.51,43.82 "/>
<g>
	<defs>
		<rect id="SVGID_1_" x="36.31" y="31.82" width="334.2" height="82.4"/>
	</defs>
	<clipPath id="SVGID_00000012456012227169079560000014592891923714294697_">
		<use xlink:href="#SVGID_1_"  style="overflow:visible;"/>
	</clipPath>
	<path style="clip-path:url(#SVGID_00000012456012227169079560000014592891923714294697_);fill:#FFFFFF;" d="M139.51,106.32
		c2.33,0,4.3-0.78,5.9-2.35c1.6-1.57,2.83-3.88,3.7-6.95c0.86-3.07,1.3-6.8,1.3-11.2c0-4.13-0.43-7.63-1.3-10.5
		c-0.87-2.87-2.1-5.07-3.7-6.6c-1.6-1.53-3.57-2.3-5.9-2.3c-2.33,0-4.32,0.78-5.95,2.35c-1.63,1.57-2.88,3.83-3.75,6.8
		c-0.87,2.97-1.3,6.58-1.3,10.85c0,4.27,0.43,7.88,1.3,10.85c0.87,2.97,2.12,5.22,3.75,6.75
		C135.19,105.55,137.18,106.32,139.51,106.32 M139.51,113.22c-5.54,0-10.38-1.07-14.55-3.2c-4.17-2.13-7.42-5.2-9.75-9.2
		c-2.33-4-3.5-8.8-3.5-14.4c0-5.67,1.17-10.48,3.5-14.45c2.33-3.97,5.58-7.02,9.75-9.15c4.17-2.13,9.02-3.2,14.55-3.2
		c5.53,0,10.37,1.07,14.5,3.2c4.13,2.13,7.38,5.18,9.75,9.15c2.37,3.97,3.55,8.78,3.55,14.45c0,5.6-1.19,10.4-3.55,14.4
		c-2.37,4-5.62,7.07-9.75,9.2C149.87,112.15,145.04,113.22,139.51,113.22"/>
</g>
<polygon class="st0" points="192.41,112.12 174.51,68.02 169.41,68.02 169.41,60.72 199.01,60.72 199.01,68.02 190.51,68.02 
	202.91,101.72 199.21,101.62 212.51,68.02 204.11,68.02 204.11,60.72 225.91,60.72 225.91,68.02 220.81,68.02 202.91,112.12 "/>
<polygon class="st0" points="228.71,112.02 228.71,104.72 237.01,104.72 237.01,68.02 229.51,68.02 229.51,60.72 252.11,60.72 
	252.11,104.72 259.31,104.72 259.31,112.02 "/>
<g>
	<defs>
		<rect id="SVGID_00000183942494282086488880000015205844686044732603_" x="36.31" y="31.82" width="334.2" height="82.4"/>
	</defs>
	<clipPath id="SVGID_00000160186005936353112760000002208510138779698853_">
		<use xlink:href="#SVGID_00000183942494282086488880000015205844686044732603_"  style="overflow:visible;"/>
	</clipPath>
	<path style="clip-path:url(#SVGID_00000160186005936353112760000002208510138779698853_);fill:#FFFFFF;" d="M303.51,83.52
		c-2.47,0-4.45-0.63-5.95-1.9c-1.5-1.26-2.25-2.9-2.25-4.9c0-2.4,0.95-4.18,2.85-5.35c1.9-1.17,4.45-1.72,7.65-1.65v4.3
		c-0.47-1.47-1.22-2.83-2.25-4.1c-1.03-1.27-2.38-2.27-4.05-3c-1.67-0.73-3.7-1.1-6.1-1.1l-3-6.1c4.33,0,8.15,0.7,11.45,2.1
		c3.3,1.4,5.88,3.25,7.75,5.55c1.86,2.3,2.8,4.85,2.8,7.65c0,2.6-0.8,4.67-2.4,6.2C308.41,82.75,306.24,83.52,303.51,83.52
		 M289.61,113.32c-5.07,0-9.55-1.03-13.45-3.1c-3.9-2.07-6.93-5.13-9.1-9.2c-2.17-4.06-3.25-8.97-3.25-14.7
		c0-5.73,1.12-10.58,3.35-14.55c2.23-3.97,5.33-6.97,9.3-9c3.96-2.03,8.62-3.05,13.95-3.05l3,6.1c-3.27,0-5.98,0.78-8.15,2.35
		c-2.17,1.57-3.8,3.73-4.9,6.5c-1.1,2.77-1.65,5.95-1.65,9.55c0,3.47,0.57,6.53,1.7,9.2c1.13,2.67,2.78,4.75,4.95,6.25
		c2.16,1.5,4.75,2.25,7.75,2.25c2,0,3.77-0.32,5.3-0.95c1.53-0.63,2.83-1.48,3.9-2.55c1.07-1.07,1.93-2.28,2.6-3.65
		c0.67-1.37,1.1-2.78,1.3-4.25h6.7c-0.07,3.27-0.62,6.3-1.65,9.1c-1.03,2.8-2.52,5.22-4.45,7.25c-1.93,2.03-4.33,3.62-7.2,4.75
		C296.74,112.75,293.41,113.32,289.61,113.32"/>
	<path style="clip-path:url(#SVGID_00000160186005936353112760000002208510138779698853_);fill:#FFFFFF;" d="M355.41,79.02
		c0-2.47-0.35-4.65-1.05-6.55c-0.7-1.9-1.72-3.38-3.05-4.45c-1.33-1.07-2.97-1.6-4.9-1.6l-0.3-6.8c5.27,0,9.7,1.03,13.3,3.1
		c3.6,2.07,6.35,4.88,8.25,8.45c1.9,3.57,2.85,7.72,2.85,12.45L355.41,79.02z M327.71,85.92v-6.9h27.7l15.1,4.6v2.3H327.71z
		 M346.11,113.12c-5.13,0-9.65-1.07-13.55-3.2c-3.9-2.13-6.95-5.18-9.15-9.15c-2.2-3.97-3.3-8.75-3.3-14.35
		c0-5.67,1.1-10.48,3.3-14.45c2.2-3.97,5.25-7.02,9.15-9.15c3.9-2.13,8.42-3.2,13.55-3.2l0.3,6.8c-2.2,0-4.14,0.62-5.8,1.85
		c-1.67,1.23-2.97,3.2-3.9,5.9c-0.93,2.7-1.4,6.32-1.4,10.85c0,5.47,1.3,9.75,3.9,12.85c2.6,3.1,6.27,4.65,11,4.65
		c2.86,0,5.25-0.57,7.15-1.7c1.9-1.13,3.35-2.63,4.35-4.5c1-1.87,1.63-3.8,1.9-5.8h6.8c-0.07,3-0.62,5.85-1.65,8.55
		s-2.57,5.1-4.6,7.2c-2.04,2.1-4.55,3.77-7.55,5C353.61,112.5,350.11,113.12,346.11,113.12"/>
	<path style="clip-path:url(#SVGID_00000160186005936353112760000002208510138779698853_);fill:#FFFFFF;" d="M252.59,38.66
		l0.05,0.66v0.59v0.54c0,1.5-0.28,2.87-0.84,4.11c-0.56,1.24-1.34,2.31-2.33,3.2c-0.99,0.89-2.18,1.58-3.55,2.07
		c-1.38,0.49-2.88,0.74-4.52,0.74h-1.45h-0.8c0.89,0.88,1.88,1.56,2.96,2.06s2.35,0.75,3.79,0.75c0.31,0,0.62-0.01,0.91-0.04
		c0.3-0.02,0.59-0.06,0.89-0.1l4.2,2.58v-4.24c0.56-0.39,1.08-0.83,1.55-1.32c0.47-0.49,0.86-1.03,1.18-1.61
		c0.32-0.58,0.57-1.18,0.75-1.82c0.18-0.63,0.27-1.29,0.27-1.98c0-1.22-0.27-2.36-0.82-3.42C254.27,40.37,253.52,39.44,252.59,38.66
		 M239.6,48.88c0.3,0.05,0.71,0.09,1.25,0.13s0.96,0.06,1.28,0.06c1.34,0,2.57-0.23,3.68-0.7c1.11-0.47,2.06-1.1,2.85-1.9
		c0.79-0.8,1.4-1.72,1.83-2.78c0.43-1.06,0.65-2.17,0.65-3.34c0-1.17-0.26-2.28-0.77-3.32c-0.52-1.04-1.2-1.94-2.04-2.72
		c-0.84-0.77-1.8-1.38-2.88-1.83s-2.18-0.67-3.3-0.67c-1.34,0-2.61,0.22-3.8,0.67c-1.19,0.44-2.22,1.06-3.1,1.83
		c-0.88,0.77-1.58,1.68-2.09,2.72s-0.76,2.14-0.76,3.32c0,1.36,0.25,2.61,0.76,3.75c0.51,1.14,1.25,2.13,2.24,2.98v4.24L239.6,48.88
		z M246.26,39.32c0.31,0,0.58,0.11,0.8,0.33c0.22,0.22,0.33,0.48,0.33,0.8c0,0.31-0.11,0.58-0.33,0.8c-0.22,0.22-0.48,0.33-0.8,0.33
		c-0.31,0-0.58-0.11-0.8-0.33c-0.22-0.22-0.33-0.49-0.33-0.8c0-0.31,0.11-0.58,0.33-0.8C245.68,39.43,245.95,39.32,246.26,39.32
		 M241.76,39.32c0.31,0,0.58,0.11,0.8,0.33c0.22,0.22,0.33,0.48,0.33,0.8c0,0.31-0.11,0.58-0.33,0.8c-0.22,0.22-0.49,0.33-0.8,0.33
		c-0.31,0-0.58-0.11-0.8-0.33c-0.22-0.22-0.33-0.49-0.33-0.8c0-0.31,0.11-0.58,0.33-0.8C241.18,39.43,241.45,39.32,241.76,39.32
		 M237.26,39.32c0.31,0,0.58,0.11,0.8,0.33c0.22,0.22,0.33,0.48,0.33,0.8c0,0.31-0.11,0.58-0.33,0.8c-0.22,0.22-0.49,0.33-0.8,0.33
		c-0.31,0-0.58-0.11-0.8-0.33c-0.22-0.22-0.33-0.49-0.33-0.8c0-0.31,0.11-0.58,0.33-0.8C236.68,39.43,236.95,39.32,237.26,39.32"/>
</g>
</svg>