<?xml version="1.0" encoding="utf-8"?>
<svg xmlns="http://www.w3.org/2000/svg" width="189" height="177" viewBox="0 0 189 177" fill="none">
<path d="M154.356 163.064L139.12 158.902V116.733L153.631 120.896L174.671 42.7117L68.381 14.2975L61.3071 40.3589H49.3359L60.0374 0L189 34.5675L154.356 163.064ZM133.678 177H0V43.9785H133.678V177ZM122.07 55.5613H11.6084V136.46H122.07V55.5613ZM45.5269 113.294L58.7678 91.9387L72.0086 105.15L90.3282 77.8221L109.373 124.877H24.8493L35.5509 103.521L45.5269 113.294ZM37.5461 90.6718C35.2486 90.6718 33.2534 89.8272 31.5605 88.138C29.8676 86.4489 29.0211 84.3978 29.0211 81.9847C29.0211 79.5716 29.8676 77.5205 31.5605 75.8313C33.2534 74.1421 35.2486 73.2975 37.5461 73.2975C39.9645 73.2975 42.0201 74.1421 43.7131 75.8313C45.406 77.5205 46.2524 79.5716 46.2524 81.9847C46.2524 84.3978 45.406 86.4489 43.7131 88.138C42.0201 89.8272 39.9645 90.6718 37.5461 90.6718Z" fill="#007A91"/>
<path d="M154.356 163.064L139.12 158.902V116.733L153.631 120.896L174.671 42.7117L68.381 14.2975L61.3071 40.3589H49.3359L60.0374 0L189 34.5675L154.356 163.064ZM133.678 177H0V43.9785H133.678V177ZM122.07 55.5613H11.6084V136.46H122.07V55.5613ZM45.5269 113.294L58.7678 91.9387L72.0086 105.15L90.3282 77.8221L109.373 124.877H24.8493L35.5509 103.521L45.5269 113.294ZM37.5461 90.6718C35.2486 90.6718 33.2534 89.8272 31.5605 88.138C29.8676 86.4489 29.0211 84.3978 29.0211 81.9847C29.0211 79.5716 29.8676 77.5205 31.5605 75.8313C33.2534 74.1421 35.2486 73.2975 37.5461 73.2975C39.9645 73.2975 42.0201 74.1421 43.7131 75.8313C45.406 77.5205 46.2524 79.5716 46.2524 81.9847C46.2524 84.3978 45.406 86.4489 43.7131 88.138C42.0201 89.8272 39.9645 90.6718 37.5461 90.6718Z" fill="black" fill-opacity="0.2"/>
<path d="M154.356 163.064L139.12 158.902V116.733L153.631 120.896L174.671 42.7117L68.381 14.2975L61.3071 40.3589H49.3359L60.0374 0L189 34.5675L154.356 163.064ZM133.678 177H0V43.9785H133.678V177ZM122.07 55.5613H11.6084V136.46H122.07V55.5613ZM45.5269 113.294L58.7678 91.9387L72.0086 105.15L90.3282 77.8221L109.373 124.877H24.8493L35.5509 103.521L45.5269 113.294ZM37.5461 90.6718C35.2486 90.6718 33.2534 89.8272 31.5605 88.138C29.8676 86.4489 29.0211 84.3978 29.0211 81.9847C29.0211 79.5716 29.8676 77.5205 31.5605 75.8313C33.2534 74.1421 35.2486 73.2975 37.5461 73.2975C39.9645 73.2975 42.0201 74.1421 43.7131 75.8313C45.406 77.5205 46.2524 79.5716 46.2524 81.9847C46.2524 84.3978 45.406 86.4489 43.7131 88.138C42.0201 89.8272 39.9645 90.6718 37.5461 90.6718Z" fill="black" fill-opacity="0.2"/>
</svg>