<svg width="63" height="64" viewBox="0 0 63 64" fill="none" xmlns="http://www.w3.org/2000/svg">
<g id="&#240;&#159;&#166;&#134; icon &#34;add circle&#34;">
<g id="Vector">
<path d="M31.5 5.33398C17.01 5.33398 5.25 17.2807 5.25 32.0006C5.25 46.7206 17.01 58.6673 31.5 58.6673C45.99 58.6673 57.75 46.7206 57.75 32.0006C57.75 17.2807 45.99 5.33398 31.5 5.33398ZM44.625 34.6673H34.125V45.334H28.875V34.6673H18.375V29.334H28.875V18.6673H34.125V29.334H44.625V34.6673Z" fill="#007A91"/>
<path d="M31.5 5.33398C17.01 5.33398 5.25 17.2807 5.25 32.0006C5.25 46.7206 17.01 58.6673 31.5 58.6673C45.99 58.6673 57.75 46.7206 57.75 32.0006C57.75 17.2807 45.99 5.33398 31.5 5.33398ZM44.625 34.6673H34.125V45.334H28.875V34.6673H18.375V29.334H28.875V18.6673H34.125V29.334H44.625V34.6673Z" fill="black" fill-opacity="0.2"/>
<path d="M31.5 5.33398C17.01 5.33398 5.25 17.2807 5.25 32.0006C5.25 46.7206 17.01 58.6673 31.5 58.6673C45.99 58.6673 57.75 46.7206 57.75 32.0006C57.75 17.2807 45.99 5.33398 31.5 5.33398ZM44.625 34.6673H34.125V45.334H28.875V34.6673H18.375V29.334H28.875V18.6673H34.125V29.334H44.625V34.6673Z" fill="black" fill-opacity="0.2"/>
</g>
</g>
</svg>
