<svg width="75" height="75" viewBox="0 0 75 75" fill="none" xmlns="http://www.w3.org/2000/svg">
<g id="&#240;&#159;&#166;&#134; icon &#34;date range&#34;">
<path id="Vector" d="M28.6269 34.0067H22.4439V40.1897H28.6269V34.0067ZM40.9929 34.0067H34.8099V40.1897H40.9929V34.0067ZM53.3589 34.0067H47.1759V40.1897H53.3589V34.0067ZM59.542 12.3661H56.4505V6.18311H50.2674V12.3661H25.5354V6.18311H19.3524V12.3661H16.2609C12.8293 12.3661 10.1088 15.1485 10.1088 18.5491L10.0779 61.8302C10.0779 65.2309 12.8293 68.0132 16.2609 68.0132H59.542C62.9426 68.0132 65.725 65.2309 65.725 61.8302V18.5491C65.725 15.1485 62.9426 12.3661 59.542 12.3661ZM59.542 61.8302H16.2609V27.8236H59.542V61.8302Z" fill="#007A91"/>
</g>
</svg>
