<svg width="115" height="84" viewBox="0 0 115 84" fill="none" xmlns="http://www.w3.org/2000/svg">
<g id="Cheers">
<path d="M61.6534 0.0193935C61.6851 0.0490727 61.9705 0.078752 62.3035 0.108431C62.9694 0.13811 63.6671 0.642658 63.6671 1.07301C63.6671 1.48852 63.2866 2.63117 62.4145 4.97583C61.9547 6.163 61.4473 7.55792 61.2729 8.09215C61.0985 8.62638 60.8924 9.19028 60.8131 9.35352C60.607 9.81355 60.0679 11.3717 59.941 11.9059C59.7983 12.5589 59.5288 12.737 59.1166 12.4698C58.8787 12.3066 58.7202 11.9505 58.5775 11.1788C58.3555 10.0065 58.3396 9.88775 58.2921 9.82839C58.2603 9.81355 58.2286 9.63547 58.1811 9.42772C58.1494 9.21996 58.0067 8.5225 57.8798 7.85472C57.753 7.20177 57.6103 6.32624 57.5627 5.92557C57.5151 5.5249 57.4359 5.09455 57.4042 4.97583C57.2773 4.50096 57.1505 1.54788 57.2456 1.13237C57.3566 0.657497 57.8957 0.241988 58.5616 0.123271C59.0373 0.0490727 61.59 -0.039965 61.6534 0.0193935ZM58.6567 2.57181C58.6567 3.23959 58.7043 4.23385 58.7836 4.76807C58.847 5.31714 58.9421 6.26688 58.9739 6.89014C59.0056 7.51341 59.0848 8.21087 59.1483 8.46314C59.3385 9.2348 59.3544 9.35352 59.3702 9.50191C59.3861 9.63547 60.3216 7.15725 61.8596 2.9428C62.0657 2.36405 62.2401 1.78531 62.2401 1.65175C62.2401 1.41432 61.59 1.34012 59.6239 1.34012H58.6726L58.6567 2.57181Z" fill="#952A5A"/>
<path d="M53.3927 5.74748C53.7732 6.13332 54.3282 6.91982 54.3916 7.20177C54.455 7.42436 54.677 7.94375 54.9466 8.46314C55.1051 8.78961 55.4539 9.50191 55.7235 10.0361C55.993 10.5852 56.215 11.1343 56.215 11.2678C56.215 11.8317 55.3588 11.6982 54.0111 10.9562C53.6147 10.7336 53.25 10.5407 53.2024 10.5407C53.0439 10.511 51.8547 9.9471 51.7755 9.85806C51.7279 9.81354 51.4583 9.69483 51.1729 9.59095C50.8875 9.47223 50.5546 9.20512 50.4277 8.98252C50.2216 8.62637 50.2375 8.5225 50.5387 8.00311C50.7131 7.69148 50.9193 7.39468 50.9985 7.37984C51.0778 7.35016 51.1412 7.23145 51.1412 7.09789C51.1412 6.63786 51.9499 5.59909 52.4414 5.43585C52.8853 5.28746 52.9646 5.31714 53.3927 5.74748ZM52.1877 7.82503C51.9182 8.27022 51.7913 8.61153 51.8864 8.64121C51.9816 8.67089 52.5365 8.92317 53.1232 9.20512C53.7098 9.48707 54.2172 9.72451 54.2331 9.72451C54.2648 9.72451 54.0586 9.309 53.7891 8.78961C53.5196 8.28506 53.2976 7.82503 53.2976 7.76567C53.2817 7.61728 52.8378 7.05337 52.7268 7.05337C52.6792 7.05337 52.4414 7.39468 52.1877 7.82503Z" fill="#952A5A"/>
<path d="M67.3139 7.21661C67.3139 7.27596 67.5834 7.45404 67.9005 7.60244C68.2335 7.73599 68.5347 7.89923 68.5823 7.94375C68.6299 8.00311 68.9628 8.2257 69.3275 8.43345C70.5008 9.13092 70.6911 9.75418 69.93 10.4962C69.6446 10.793 69.4385 11.0749 69.4861 11.1194C69.5495 11.1639 69.4702 11.2085 69.3275 11.2085C69.1689 11.2085 69.058 11.2678 69.058 11.3272C69.058 11.4014 68.7567 11.6537 68.3762 11.9059C67.5041 12.4995 63.017 16.6249 63.128 16.7436C63.1756 16.7882 63.0646 16.8624 62.8743 16.9217C62.4621 17.0404 62.2401 16.8178 62.2401 16.2391C62.2401 15.9126 62.684 14.4435 63.0329 13.657C63.0963 13.4938 63.2865 12.9595 63.4292 12.4698C63.5719 11.9801 63.7464 11.4459 63.8256 11.2827C63.9049 11.1194 64.0793 10.6446 64.2379 10.2439C64.5867 9.35351 65.7124 7.21661 65.8551 7.18693C66.2991 7.09789 67.3139 7.11273 67.3139 7.21661ZM66.2674 9.19028C66.2198 9.39803 66.1088 9.57611 66.0454 9.57611C65.982 9.57611 65.8869 9.75418 65.8393 9.97678C65.7917 10.2142 65.6649 10.5852 65.5539 10.8375C65.4429 11.0749 65.3478 11.3865 65.3478 11.5053C65.3319 11.624 65.2685 11.8169 65.2051 11.9059C65.1416 12.0098 64.9355 12.4698 64.777 12.9299C64.4281 13.8796 64.444 13.8796 65.7283 12.6924C66.1247 12.3214 66.8699 11.6833 67.3773 11.2827C68.3603 10.4962 69.0897 9.84322 69.0262 9.7987C68.9945 9.78386 68.4872 9.45739 67.9005 9.0864C66.7113 8.32958 66.5052 8.34442 66.2674 9.19028Z" fill="#952A5A"/>
<path d="M44.4819 17.7528C46.1784 18.1683 47.0029 18.4205 47.5737 18.6877C47.9226 18.8509 48.2397 18.9844 48.2872 18.9993C48.4616 19.0141 49.3337 19.5929 49.4447 19.7709C49.5081 19.8748 49.6508 19.9639 49.7618 19.9639C50.0472 19.9639 52.2511 21.982 52.2511 22.2492C52.2511 22.3827 52.3621 22.4866 52.4889 22.4866C52.6158 22.4866 52.7585 22.6498 52.8219 22.8576C52.8695 23.0653 52.9805 23.2286 53.0439 23.2286C53.1232 23.2286 53.2341 23.377 53.2817 23.555C53.3451 23.748 53.5037 24.0596 53.6464 24.2673C53.9159 24.668 53.9477 24.7719 54.0904 25.6771C54.1379 26.0036 54.2013 26.2855 54.233 26.3152C54.2648 26.3449 54.233 26.5378 54.1538 26.7307C54.0586 26.9533 54.0586 27.0869 54.1538 27.0869C54.233 27.0869 54.344 26.9088 54.4075 26.6714C54.5343 26.1371 55.2954 24.7125 55.4539 24.7125C55.5173 24.7125 55.5808 24.6383 55.5808 24.5493C55.5808 24.3119 57.7847 22.3382 58.0384 22.3382C58.1494 22.3382 58.2921 22.2343 58.3396 22.1008C58.3872 21.982 58.4982 21.9227 58.5933 21.9672C58.6726 22.0117 58.7519 21.9969 58.7519 21.9227C58.7519 21.8485 58.8787 21.7446 59.0214 21.7001C59.18 21.6407 59.5922 21.4478 59.941 21.2549C60.6228 20.8839 62.4462 20.231 62.6682 20.2903C62.7316 20.3052 62.9377 20.2458 63.128 20.1568C63.3024 20.0529 63.6671 19.9342 63.9208 19.8897C64.1745 19.8451 64.444 19.7858 64.5391 19.7561C65.0307 19.6225 65.5539 19.5187 65.9661 19.4593C66.2198 19.4296 66.4418 19.3851 66.4418 19.3703C66.4418 19.1032 71.3729 19.0883 72.4669 19.3554C73.989 19.7413 75.2733 20.8097 75.6697 22.0414C75.8124 22.4866 75.9234 22.9466 75.8917 23.0653C75.8758 23.1692 75.9868 23.4067 76.1454 23.5847C76.7955 24.2525 77.6041 25.6326 77.6199 26.0481C77.6199 26.1817 77.6992 26.3597 77.8102 26.4636C77.9212 26.5675 77.937 26.6417 77.8419 26.6417C77.7626 26.6417 77.7785 26.701 77.8736 26.7604C78.2383 26.9978 79.3323 31.0194 79.6019 33.1711C79.6653 33.6163 79.7446 34.0912 79.808 34.2099C79.8556 34.3286 79.919 35.0706 79.9348 35.8423C79.9666 36.6139 79.9983 37.3559 80.0141 37.4746C80.0617 37.905 79.2531 40.8729 79.0311 41.1103C78.9518 41.1845 78.8884 41.3626 78.8884 41.511C78.8884 41.6594 78.8091 41.7781 78.7298 41.7781C78.6347 41.7781 78.5713 41.8671 78.5713 41.9562C78.5713 42.3123 77.2553 43.9299 76.4942 44.5234C75.6539 45.1912 75.7014 44.8499 75.9551 47.4914C76.082 48.8269 76.4625 50.3703 76.7637 50.7858C76.8906 50.9787 76.954 51.1271 76.9064 51.1271C76.843 51.1271 76.9381 51.3051 77.1126 51.5277C77.287 51.7652 77.7626 52.5368 78.159 53.2788C79.7604 56.1429 80.2837 57.0629 80.5849 57.4636C80.7593 57.6862 81.6789 59.3482 82.6461 61.1438C83.5975 62.9394 84.5012 64.5866 84.6598 64.8092C84.8183 65.0467 84.8976 65.2247 84.8342 65.2247C84.7708 65.2247 84.7866 65.3138 84.8818 65.4028C84.9769 65.5067 85.738 66.8868 86.5783 68.4449C87.4186 70.0179 88.1639 71.309 88.2273 71.309C88.2907 71.309 88.4017 71.2645 88.4651 71.1903C88.8615 70.8193 90.2568 70.7599 92.1436 71.0419C92.7461 71.1457 94.5695 72.0658 95.1403 72.5555C95.6477 73.0007 95.9172 73.5349 95.5367 73.3123C95.4415 73.2678 95.3781 73.2826 95.3781 73.3568C95.3781 73.713 94.7756 73.6536 93.7291 73.1788C93.1108 72.9117 92.3497 72.6 92.0326 72.511C90.7166 72.1251 88.8774 72.4665 88.8774 73.1046C88.8774 73.5201 88.4017 73.8614 88.1321 73.6536C87.5613 73.2233 86.8478 74.633 86.721 76.3544C86.7051 76.7996 86.6734 77.1706 86.6576 77.1706C86.6576 77.1706 86.61 77.7049 86.5625 78.3578C86.4832 79.634 86.1661 80.3611 85.8014 80.0792C85.6904 79.9902 85.5636 79.9605 85.5001 80.005C85.294 80.1979 84.961 79.174 84.9135 78.2094C84.8342 76.399 84.9928 74.455 85.2464 74.2027C85.3257 74.1285 85.3891 73.9801 85.3891 73.8762C85.3891 73.6239 86.1185 72.6297 86.5783 72.2884L86.9588 72.0064L86.1343 70.5076C85.6745 69.6766 85.183 68.8456 85.0245 68.6378C84.8818 68.4449 84.7549 68.1926 84.7549 68.0888C84.7549 67.9849 84.5012 67.5545 84.2 67.1539C83.8987 66.7384 83.6926 66.4119 83.7402 66.4119C83.8036 66.4119 83.756 66.2932 83.6292 66.1448C83.3913 65.8777 83.2645 65.6847 82.5351 64.4085C81.8058 63.1323 81.6789 62.9394 81.4411 62.6575C81.3143 62.5239 81.2667 62.4052 81.3301 62.4052C81.3936 62.4052 81.235 62.1232 80.9972 61.7671C80.7435 61.4258 80.4581 60.9657 80.3471 60.7283C80.252 60.5057 80.0934 60.3276 80.0141 60.3276C79.919 60.3276 79.8873 60.2238 79.9348 60.105C79.9983 59.9863 79.9507 59.8825 79.8556 59.8825C79.7604 59.8825 79.6812 59.7786 79.6812 59.645C79.6812 59.5263 79.475 59.1256 79.2055 58.7695C78.9518 58.4133 78.6505 57.9681 78.5713 57.7752C78.4761 57.5823 78.159 57.0332 77.8419 56.5435C77.5407 56.0538 77.2077 55.4899 77.0967 55.2822C77.0016 55.0744 76.8272 54.8221 76.7162 54.7183C76.6052 54.6144 76.51 54.4215 76.51 54.3028C76.51 54.184 76.4308 54.095 76.3515 54.095C76.2564 54.095 76.1929 54.0208 76.1929 53.9169C76.1929 53.7685 75.4319 52.4775 74.6232 51.2755C74.4964 51.0677 74.3854 50.8748 74.4013 50.8154C74.433 50.6967 73.1011 49.1089 71.9278 47.892C70.9923 46.9126 70.8179 46.7939 69.8666 46.5416C69.2958 46.3932 68.7091 46.2597 68.5823 46.2448C68.4554 46.2448 67.8529 46.1261 67.2346 46.0074C66.1564 45.77 65.8234 45.6661 64.2062 44.9538C63.7622 44.7609 63.35 44.5976 63.3024 44.5976C63.2548 44.5976 63.017 44.4344 62.7792 44.2266C62.5413 44.0189 62.2877 43.8557 62.1925 43.8557C62.0181 43.8557 60.5753 42.7575 60.052 42.2233C59.8459 42.0155 59.3544 41.511 58.9421 41.1103C58.5299 40.6948 58.0859 40.2051 57.9591 40.0122C57.8323 39.8193 57.5786 39.478 57.3883 39.2702C57.2139 39.0625 56.9443 38.6469 56.7858 38.365C56.6431 38.083 56.3101 37.5191 56.0564 37.1333C55.7869 36.7475 55.5332 36.2578 55.4856 36.0649C55.4381 35.8571 55.2478 35.4416 55.0892 35.1448C54.9307 34.8332 54.788 34.477 54.788 34.3286C54.788 34.1951 54.7087 34.0318 54.6294 33.9873C54.5343 33.9428 54.4709 33.6312 54.4709 33.3195C54.4709 33.0079 54.3916 32.6963 54.2806 32.6369C54.1696 32.5775 54.1538 32.5924 54.2172 32.6963C54.2806 32.8001 54.2648 32.8743 54.1855 32.8743C54.1221 32.8743 53.9476 33.1266 53.8367 33.4234C53.5037 34.2693 51.6169 37.6379 51.2046 38.1572C50.9985 38.4095 50.8241 38.6915 50.8241 38.7805C50.8241 38.8844 50.7607 38.9586 50.6973 38.9586C50.618 38.9586 50.3484 39.2405 50.0789 39.5818C49.4764 40.3535 47.4945 42.1936 46.8285 42.5943C46.6858 42.6685 46.2419 42.9653 45.8455 43.2176C45.4332 43.4847 44.91 43.7518 44.6722 43.7963C44.4343 43.8557 44.1014 43.9744 43.927 44.0783C43.594 44.2712 42.2146 44.6718 41.3108 44.8351C40.5339 44.9686 38.4568 44.9983 38.3617 44.8796C38.33 44.8202 37.8543 44.7906 37.3152 44.8054C36.2529 44.8202 36.1102 44.9093 33.9538 46.5713C32.8757 47.4023 32.7488 47.521 32.7488 47.6843C32.7488 47.7733 32.6854 47.8624 32.622 47.892C32.4951 47.9366 31.8609 48.9011 29.768 52.1659C29.1179 53.1898 28.4678 54.184 28.3251 54.3918C28.1983 54.5995 28.0714 54.7925 28.0714 54.837C28.0714 54.9557 27.2945 55.95 27.1677 55.9945C27.1043 56.0242 27.0408 56.1577 27.0408 56.2764C27.0408 56.41 26.7713 56.8552 26.4383 57.2707C26.1054 57.6862 25.5187 58.4875 25.1223 59.0663C24.7418 59.6302 24.1234 60.5206 23.7429 61.0251C23.3782 61.5445 23.077 62.0194 23.077 62.0936C23.077 62.1678 23.0135 62.2568 22.9501 62.2865C22.8074 62.331 22.1573 63.2659 20.7303 65.4473C20.1912 66.2635 19.6839 67.0055 19.6046 67.0945C19.5253 67.1984 19.4936 67.3171 19.5412 67.3616C19.6046 67.4062 19.557 67.4507 19.4619 67.4507C19.3509 67.4507 19.2716 67.5546 19.2716 67.6733C19.2716 67.792 19.2082 67.8959 19.1448 67.8959C18.9228 67.8959 17.6227 70.1366 17.7812 70.2405C18.0349 70.4186 18.9387 71.7096 19.1289 72.14C19.3668 72.7336 19.4778 73.5794 19.4778 74.7666C19.4936 75.5828 19.4302 75.8351 19.1606 76.0873C18.7643 76.4435 18.2252 76.3396 18.0666 75.8796C18.019 75.7163 17.9715 75.2266 17.9556 74.8111C17.9556 73.9207 17.369 72.2736 16.9092 71.8877C16.6079 71.6206 16.592 71.6206 16.3701 71.9026C16.1798 72.1548 16.0847 72.1845 15.7041 72.051C15.3078 71.9174 15.276 71.8432 15.3553 71.3683L15.4505 70.8489L14.626 70.8786C13.7381 70.9231 13.5002 70.9825 12.0574 71.6206C11.0743 72.0658 10.3291 72.1697 10.1547 71.9026C9.82173 71.398 10.0596 70.9528 11.0743 70.1812C11.5341 69.825 13.3892 69.1127 14.0869 69.0237C14.7528 68.9346 15.6407 69.0533 16.2591 69.2908C16.4335 69.365 16.6079 69.2166 16.8616 68.8011C17.0519 68.4894 17.2104 68.1185 17.2104 67.9849C17.2104 67.8513 17.2738 67.7475 17.3373 67.7475C17.4165 67.7475 17.5909 67.5249 17.7336 67.2578C17.8922 67.0055 18.2886 66.308 18.6533 65.7441C19.0021 65.1654 19.4302 64.4085 19.6205 64.0376C19.7949 63.6666 20.001 63.3401 20.0485 63.2956C20.112 63.2511 20.5876 62.5239 21.095 61.6781C22.744 58.9921 22.8391 58.8585 23.077 58.5914C23.2038 58.443 23.4099 58.1165 23.5209 57.8791C23.727 57.4636 24.1551 56.781 24.8686 55.8164C25.043 55.579 25.1857 55.297 25.1857 55.1931C25.1857 55.0893 25.2492 55.0299 25.3284 55.0744C25.4394 55.1486 25.5028 54.9409 25.4077 54.7479C25.3919 54.7034 25.5029 54.5996 25.6456 54.5254C25.8041 54.4363 25.9309 54.3176 25.9309 54.2286C25.9309 54.0802 26.47 53.3085 26.8347 52.9375C26.9457 52.8336 27.0408 52.6556 27.0408 52.5517C27.0408 52.4478 27.1835 52.24 27.3421 52.062C27.5006 51.8987 27.7702 51.5426 27.9129 51.2606C28.0714 50.9787 28.3886 50.5187 28.6264 50.2367C29.2923 49.4205 30.4656 47.521 30.6559 46.972C31.4328 44.5976 31.6389 40.8877 30.973 40.8877C30.8937 40.8877 30.862 40.8284 30.9096 40.7542C30.9572 40.6948 30.862 40.4722 30.6876 40.2793C30.4973 40.1012 30.3229 39.7896 30.2754 39.5967C30.2119 39.4038 30.1168 39.2554 30.0534 39.2554C29.99 39.2554 29.7838 38.8102 29.5936 38.2463C29.2606 37.3411 29.1496 36.8959 28.8484 35.2487C28.7215 34.5364 28.7215 31.4497 28.8484 30.7226C28.9118 30.3961 28.9911 29.9658 29.0228 29.758C29.1179 29.1051 29.4033 28.0069 29.5936 27.5766C29.6887 27.354 29.8314 27.0275 29.8948 26.8643C29.9741 26.701 30.0692 26.3894 30.1168 26.1668C30.1644 25.9442 30.3229 25.6771 30.4498 25.5436C30.5766 25.4248 30.6876 25.2319 30.6876 25.128C30.6876 25.0242 30.7986 24.7867 30.9254 24.6235C31.0523 24.4454 31.0999 24.2673 31.0523 24.208C31.0047 24.1635 31.0364 24.119 31.1316 24.119C31.2267 24.119 31.3377 24.0002 31.3852 23.8518C31.4328 23.7183 31.7341 23.3621 32.0353 23.0653C32.3366 22.7685 32.5427 22.4866 32.511 22.4569C32.4159 22.3679 34.4454 20.409 35.1113 19.9639C35.4125 19.7561 35.7138 19.6077 35.7931 19.6374C35.8565 19.6522 35.9041 19.5929 35.8724 19.5038C35.8089 19.207 38.5995 17.9457 39.5667 17.827C41.0096 17.6489 43.8952 17.6044 44.4819 17.7528ZM41.073 19.4296C40.5497 19.4741 39.8362 19.5929 39.4874 19.6819C38.8056 19.86 37.2994 20.5574 37.2201 20.7355C37.1884 20.8097 37.0932 20.8542 36.9981 20.8542C36.3956 20.8542 33.0659 24.5048 33.3196 24.8906C33.383 24.9797 33.3672 25.0093 33.272 24.9648C33.0976 24.8609 32.7488 25.4545 32.511 26.1965C32.4476 26.4043 32.3524 26.5972 32.289 26.6417C32.178 26.7307 31.8133 27.6211 31.7182 28.0366C31.6706 28.185 31.5755 28.5263 31.4804 28.7934C31.3852 29.0605 31.2743 29.4612 31.2425 29.6987C31.195 29.9361 31.0998 30.4258 31.0206 30.7968C30.8779 31.5091 30.9254 34.7144 31.084 35.4713C31.1316 35.7087 31.195 36.0352 31.2108 36.1687C31.2267 36.3171 31.2901 36.4358 31.3535 36.4358C31.417 36.4358 31.4645 36.4804 31.4487 36.5397C31.3852 36.703 31.7341 37.4895 32.3366 38.6469C32.8281 39.6264 34.921 41.7781 35.3491 41.7781C35.476 41.7781 35.6504 41.882 35.7614 42.0007C35.8724 42.1343 35.9992 42.1936 36.0468 42.1491C36.0943 42.1046 36.2053 42.1491 36.3163 42.2233C37.0298 42.7724 39.6143 43.0395 41.3901 42.7427C42.5634 42.5498 45.9089 41.0361 45.9089 40.7097C45.9089 40.6503 46.004 40.5909 46.115 40.5909C46.337 40.5909 48.1762 38.9437 48.7787 38.2166C48.9849 37.9495 49.2861 37.623 49.4288 37.5043C49.5874 37.3707 49.7142 37.1778 49.7142 37.074C49.7142 36.9701 49.7935 36.881 49.8728 36.881C49.9679 36.881 50.1106 36.7178 50.1899 36.5249C50.2692 36.3171 50.5863 35.8274 50.8875 35.4268C51.2046 35.0261 51.4583 34.6402 51.4583 34.5809C51.4583 34.5215 51.7279 34.0318 52.045 33.4976C52.378 32.9485 52.6475 32.4737 52.6475 32.4291C52.6475 32.3846 52.9487 31.8207 53.3134 31.1529C53.8684 30.129 53.9794 29.7729 54.0586 28.7341C54.1062 28.0515 54.2013 27.443 54.2489 27.3688C54.2965 27.2946 54.2965 27.2353 54.233 27.2353C54.1855 27.2353 53.9794 27.5914 53.7574 28.0366C53.2976 28.9715 52.1243 30.1587 51.1888 30.6187C51.0302 30.6929 50.3643 30.9303 49.7142 31.1381C48.4299 31.5536 46.2894 31.6575 45.6711 31.3459C45.4967 31.2568 45.2271 31.1975 45.0527 31.2271C44.8941 31.242 44.7039 31.2123 44.6563 31.1381C44.6087 31.0639 44.2441 30.8858 43.8477 30.7226C43.4513 30.5742 42.9122 30.3071 42.6585 30.129C42.389 29.9509 42.1036 29.7729 42.0084 29.7432C41.5486 29.5948 38.5995 26.9978 38.7422 26.8791C38.7898 26.8346 38.7581 26.7901 38.6629 26.7901C38.5678 26.7901 38.2348 26.4785 37.9177 26.0926C37.2835 25.3358 37.1567 24.6087 37.6165 24.4751C37.775 24.4306 38.0128 24.3415 38.1397 24.2822C38.3141 24.1932 38.6629 24.4306 39.4081 25.1429C41.5645 27.2204 44.5929 29.1644 45.6552 29.1644C45.8772 29.1644 46.0833 29.2238 46.1467 29.298C46.2419 29.4464 48.5885 29.4315 49.1593 29.2683C50.396 28.9418 51.3791 28.2444 51.8706 27.3391C52.1877 26.7752 52.3304 25.5139 52.1084 25.3803C52.0133 25.3358 51.9657 25.2319 52.0133 25.1577C52.1084 25.0242 51.3156 23.7183 50.7448 23.095C50.2375 22.5163 49.3495 21.7446 48.8739 21.4775C48.636 21.3439 48.4458 21.1807 48.4458 21.1213C48.4458 21.062 48.3665 21.0026 48.2714 21.0026C48.1762 21.0026 48.0018 20.9136 47.8908 20.8097C47.3835 20.3942 47.1773 20.2458 47.1773 20.32C47.1773 20.3645 46.7968 20.2606 46.337 20.0974C45.893 19.9193 45.2588 19.7116 44.9734 19.6374C44.3868 19.4741 42.4524 19.2516 42.1829 19.3109C42.0877 19.3406 41.5962 19.3851 41.073 19.4296ZM67.076 20.8691C66.4577 20.9581 65.8234 21.062 65.649 21.0768C65.4746 21.1065 65.3319 21.1362 65.3319 21.151C65.3319 21.1659 65.1575 21.2104 64.9355 21.2401C64.333 21.3439 62.4304 21.9672 61.3839 22.3976C60.8765 22.6053 60.385 22.7834 60.3057 22.7834C60.2264 22.7834 60.0837 22.8576 59.9727 22.9318C59.8618 23.0208 59.3068 23.4215 58.7202 23.8222C57.1663 24.9055 56.4211 25.9294 56.0406 27.5024C55.8345 28.3928 55.8345 30.8858 56.0564 31.8059C56.4687 33.4531 56.5797 33.8686 56.8016 34.5067C57.0553 35.219 58.3555 37.6675 58.6884 38.0534C58.7994 38.1869 59.3227 38.8102 59.8618 39.4483C60.4008 40.0864 60.9399 40.6503 61.0509 40.6948C61.1778 40.7393 61.2412 40.8284 61.1936 40.9026C61.1461 40.9768 61.1778 41.0361 61.257 41.0361C61.3363 41.0361 61.6851 41.2736 62.034 41.5555C62.7316 42.1194 63.7781 42.8169 63.9525 42.8169C64.0635 42.8169 66.093 43.7518 66.204 43.8557C66.2515 43.9002 66.4259 43.9299 66.6004 43.915C66.7748 43.915 66.9967 43.9595 67.076 44.0189C67.1712 44.0931 67.3931 44.1376 67.5517 44.1376C67.7261 44.1228 68.0432 44.1673 68.2652 44.2118C68.8994 44.3454 71.7534 44.3305 72.5779 44.1821C73.006 44.1079 73.3389 44.0783 73.3389 44.1079C73.3389 44.1376 73.5451 44.0337 73.7988 43.8705C74.0524 43.6924 74.3378 43.5589 74.4171 43.5589C74.5123 43.5589 74.9404 43.2324 75.3843 42.8466C75.8283 42.4459 76.1929 42.1639 76.1929 42.2085C76.1929 42.2975 76.3515 42.0601 76.8747 41.1548C77.3345 40.3683 77.7626 39.2405 77.5724 39.3592C77.4297 39.4334 77.4297 39.4038 77.5724 39.2405C77.9688 38.7953 78.1907 34.8035 77.8736 33.7944C77.8261 33.6608 77.7468 33.186 77.6992 32.7408C77.6358 32.2956 77.5565 31.8059 77.5248 31.6278C77.4931 31.4497 77.3662 30.8116 77.2394 30.2032C77.1126 29.5948 76.9381 28.927 76.8589 28.7192C76.7796 28.5115 76.7162 28.3186 76.7162 28.274C76.7162 28.1553 76.3832 27.1314 75.9234 25.9294C75.5587 24.9648 75.2416 24.5493 75.2416 25.0538C75.2416 25.4842 72.5145 28.1257 72.0705 28.1257C71.9912 28.1257 71.9119 28.1999 71.9119 28.3037C71.9119 28.3928 71.8644 28.4373 71.8168 28.3928C71.7693 28.3334 71.468 28.467 71.1667 28.6599C70.8496 28.8528 70.5008 29.016 70.3898 29.016C70.263 29.016 70.1678 29.0754 70.1678 29.1644C70.1678 29.2535 70.1203 29.3128 70.041 29.298C69.8032 29.2683 69.2165 29.5057 69.2165 29.6393C69.2165 29.7135 69.1372 29.7283 69.058 29.6838C68.9628 29.6245 68.7884 29.6541 68.6774 29.7432C68.4554 29.9212 66.4735 30.4555 65.649 30.5742C63.7622 30.8265 62.5096 30.8265 61.479 30.5742C59.3385 30.0251 56.8968 28.4373 56.6114 27.4133C56.5321 27.1166 56.6272 26.9385 56.9761 26.612C57.3883 26.2113 57.4676 26.1965 57.6737 26.4043C57.8164 26.523 57.9591 26.5972 58.0067 26.5527C58.0542 26.5081 58.1652 26.612 58.2762 26.7752C58.3713 26.9533 58.5458 27.0869 58.6726 27.0869C58.7836 27.0869 59.1007 27.2501 59.3544 27.4579C59.6239 27.6656 59.9093 27.8289 60.0045 27.8289C60.0996 27.8289 60.1789 27.8882 60.1789 27.9624C60.1789 28.0366 60.3374 28.1257 60.5277 28.185C60.7338 28.2295 60.9082 28.274 60.9241 28.2889C61.3839 28.5115 62.7475 28.7192 63.7781 28.7192C65.8393 28.7192 68.8835 27.9031 70.4532 26.9236C70.8338 26.6862 71.1984 26.4933 71.2619 26.4933C71.4838 26.4933 72.9901 25.039 73.4975 24.3415C74.3854 23.1247 74.0683 21.9524 72.6572 21.2697C71.3253 20.6316 69.5019 20.4981 67.076 20.8691Z" fill="#952A5A"/>
<path d="M45.8296 34.0467C46.5748 34.1802 46.8602 34.4177 46.8919 34.8925C46.9236 35.6494 46.448 37.0146 45.8772 37.8011C45.7186 38.0089 45.5918 38.2463 45.5918 38.3205C45.5918 38.5579 44.1014 39.8786 43.2927 40.3684C42.4048 40.9026 41.1364 41.4813 40.7241 41.5555C40.5656 41.5852 40.4387 41.6149 40.4387 41.6297C40.4387 41.7781 38.1556 41.8375 37.7433 41.7188C37.0457 41.4962 35.1272 40.5316 35.1272 40.4129C35.1272 40.3238 34.9844 40.1606 34.81 40.027C34.6515 39.8786 34.4929 39.6709 34.4612 39.5522C34.4295 39.4335 34.3027 39.2109 34.16 39.0625C33.6209 38.4986 33.4623 36.5101 33.8746 35.6939C34.3502 34.7738 34.6832 34.6551 37.0615 34.5957C38.219 34.5661 39.757 34.4622 40.4705 34.3731C41.184 34.2841 41.8182 34.2099 41.8975 34.2396C41.9609 34.2544 42.4524 34.2099 42.9756 34.1506C44.3551 33.9873 45.2905 33.9576 45.8296 34.0467ZM43.1342 35.7829C41.6596 35.8719 40.3753 35.9758 39.3289 36.0797C38.108 36.1836 37.3311 36.2281 36.1895 36.2726L35.4443 36.2875V36.8662C35.4443 37.1778 35.5394 37.6675 35.6662 37.9495C36.1578 39.0328 37.7433 40.1458 38.8215 40.1458C39.5508 40.1458 41.0096 39.8638 41.2632 39.6709C41.3742 39.5819 41.4694 39.5522 41.4694 39.6115C41.4694 39.7303 42.8329 38.8547 43.5781 38.2611C44.0855 37.8753 45.5918 35.8868 45.5918 35.6197C45.5918 35.5603 45.1796 35.5603 44.6722 35.6197C44.1806 35.6939 43.483 35.7681 43.1342 35.7829Z" fill="#952A5A"/>
<path d="M63.7464 34.3583C64.2696 34.5215 64.9197 34.7144 65.1892 34.8035C65.4588 34.8777 65.7442 34.9519 65.8552 34.9519C65.9503 34.9519 66.2198 35.0261 66.4735 35.13C66.7113 35.219 66.9809 35.308 67.076 35.3377C68.2969 35.679 69.0421 35.8719 69.2958 35.9165C71.7217 36.3913 72.9743 36.5991 73.8939 36.6584C75.9551 36.8068 76.7479 37.4598 76.3674 38.6618C76.2722 38.9883 76.193 39.2851 76.193 39.3296C76.2247 39.6115 75.527 40.4871 74.544 41.3923C72.8633 42.9653 71.3412 43.4253 68.8994 43.0692C67.8054 42.9208 65.649 41.9265 64.7611 41.1697C64.3806 40.8432 64.0318 40.5909 63.9842 40.5909C63.9366 40.5909 63.6354 40.3387 63.3183 40.027C62.0023 38.7657 61.4949 38.2166 61.5742 38.1424C61.6217 38.0979 61.59 38.0682 61.4949 38.0682C61.3205 38.0682 60.3057 36.3616 60.4167 36.2578C60.4643 36.2281 60.4326 35.9758 60.3533 35.7235C60.274 35.4564 60.2582 35.2487 60.3374 35.2487C60.4009 35.2487 60.5118 35.0854 60.5594 34.8925C60.607 34.6848 60.7972 34.477 60.9717 34.4325C61.1461 34.388 61.2888 34.2693 61.2888 34.1951C61.2888 33.9576 62.7475 34.0615 63.7464 34.3583ZM61.923 35.6197C61.923 35.8126 62.6206 36.9849 62.9219 37.2817C63.0963 37.4746 63.1914 37.623 63.128 37.623C63.0646 37.623 63.6512 38.2166 64.4123 38.9586C65.1734 39.6857 65.9344 40.2941 66.093 40.2941C66.2515 40.2941 66.3467 40.3535 66.2991 40.4277C66.1406 40.6651 67.9956 41.4516 69.058 41.6C70.8021 41.8523 71.8168 41.6 72.9584 40.6355C73.2438 40.4129 73.5926 39.9825 73.7353 39.7006C73.8939 39.4186 74.1793 38.9734 74.3854 38.7063C74.5915 38.454 74.766 38.2018 74.766 38.1721C74.766 38.1424 74.0366 38.0534 73.1328 37.994C71.2777 37.8605 70.7545 37.8011 70.6435 37.7714C70.596 37.7566 70.5167 37.7417 70.4533 37.7566C70.0727 37.8011 65.6332 36.6733 64.3489 36.1984C63.8098 35.9907 63.2073 35.7977 63.017 35.7681C62.8267 35.7384 62.6365 35.6642 62.5889 35.6197C62.4779 35.5158 61.923 35.5158 61.923 35.6197Z" fill="#952A5A"/>
<path d="M6.28597 35.2932C6.61894 35.4564 6.68236 35.6197 6.79335 36.51C6.96776 38.0682 7.03118 38.2314 7.71297 39.1812C8.20449 39.8638 9.88518 41.3774 10.4243 41.6446C11.106 41.971 11.3122 42.2678 11.1695 42.7278C11.0268 43.173 10.567 43.5885 10.345 43.455C10.2657 43.4105 10.0913 43.4847 9.94859 43.6034C9.80589 43.7221 9.5205 43.8705 9.31438 43.9299C8.41061 44.1821 7.0946 46.2003 6.84092 47.714C6.71407 48.4856 6.01643 49.5244 5.44563 49.8063C5.04925 49.9993 4.52601 49.6134 4.54186 49.1386C4.57357 48.2333 3.68567 45.3099 3.14658 44.4789C2.33795 43.2621 2.10012 42.9653 1.97327 42.9653C1.894 42.9653 1.83057 42.8762 1.83057 42.7724C1.83057 42.6536 1.45004 42.3865 0.974373 42.1491C0.0864639 41.7187 -0.167229 41.3329 0.102318 40.8729C0.229164 40.6355 0.784111 40.2645 1.0378 40.2199C1.33905 40.1754 2.48064 39.5076 2.60749 39.2999C2.70262 39.1515 2.7819 39.0773 2.7819 39.1366C2.7819 39.196 3.05145 38.9734 3.38441 38.6173C3.98692 37.994 4.33575 37.4746 5.00168 36.0945C5.41393 35.2487 5.74689 35.0558 6.28597 35.2932ZM5.47734 39.0031C5.47734 39.3592 4.36745 40.4277 3.55882 40.8432C3.13072 41.0806 2.79776 41.3032 2.82947 41.3626C2.84532 41.4071 3.16243 41.7484 3.52711 42.1194C4.19304 42.7872 4.74799 43.6776 5.25536 44.9093L5.54076 45.5919L6.064 44.6125C6.36525 44.0782 6.6665 43.6034 6.76163 43.5885C6.84091 43.5589 6.90434 43.4401 6.90434 43.3214C6.90434 43.1879 6.96777 43.1285 7.04704 43.1879C7.12632 43.2324 7.25316 43.1879 7.31658 43.0988C7.36415 43.0098 7.76054 42.7872 8.18864 42.5943L8.96555 42.2678L8.37891 41.8523C7.42757 41.2142 5.95301 39.6709 5.84202 39.2108C5.74689 38.8102 5.47734 38.6469 5.47734 39.0031Z" fill="#952A5A"/>
<path d="M108.617 42.431C108.713 42.5201 109.03 43.2324 109.315 44.004C109.949 45.6512 109.87 45.5325 111.376 46.9423C112.106 47.6101 112.93 48.2037 113.517 48.4856C114.754 49.0644 115.102 49.3908 114.976 49.8805C114.865 50.2515 114.405 50.5038 113.533 50.6374C112.93 50.7264 112.55 50.9193 112.074 51.3645C111.471 51.9284 110.441 53.3827 110.536 53.5311C110.584 53.6053 110.552 53.7388 110.473 53.8427C110.266 54.095 109.807 55.6235 109.807 56.0835C109.807 56.2913 109.743 56.4693 109.68 56.4693C109.616 56.4693 109.537 56.6771 109.521 56.9294C109.505 57.1816 109.363 57.6268 109.22 57.9236C109.077 58.2353 108.982 58.5172 108.982 58.5766C109.03 58.7695 108.3 58.7101 107.983 58.4875C107.761 58.3391 107.682 58.1314 107.714 57.7455C107.745 57.4487 107.65 56.9294 107.523 56.5732C107.397 56.2319 107.254 55.7125 107.206 55.4306C107.064 54.6441 106.873 54.1098 106.382 53.1304C105.922 52.24 105.732 51.9878 104.749 50.949C104.273 50.4444 102.941 49.6876 102.656 49.7618C102.608 49.7618 102.466 49.6134 102.339 49.4057C102.006 48.8121 102.212 48.6043 103.591 48.0701C104.749 47.6249 105.859 46.4674 106.699 44.8054C107.872 42.4904 107.967 42.3272 108.221 42.2975C108.348 42.2678 108.538 42.342 108.617 42.431ZM106.556 47.803C106.081 48.263 105.684 48.6043 105.684 48.545C105.684 48.4856 105.573 48.545 105.431 48.6637C105.304 48.7972 105.082 48.9011 104.955 48.9011C104.638 48.9011 104.669 49.1682 105.002 49.2573C105.161 49.3018 105.478 49.4947 105.716 49.6728C105.938 49.8657 106.35 50.1773 106.62 50.3851C106.873 50.5928 107.095 50.8451 107.111 50.949C107.111 51.0529 107.222 51.1716 107.349 51.2161C107.476 51.2755 107.555 51.3497 107.508 51.4239C107.476 51.4832 107.555 51.6613 107.714 51.8097C107.856 51.9581 108.142 52.3884 108.332 52.7594C108.538 53.1304 108.697 53.3085 108.697 53.1749C108.697 52.5962 110.726 49.8063 110.98 50.0438C111.028 50.0883 111.075 50.0735 111.075 49.9993C111.075 49.9251 111.297 49.7321 111.582 49.5837C112.058 49.3166 112.058 49.287 111.773 49.094C111.614 48.9902 111.36 48.8121 111.234 48.7082C111.107 48.6192 110.742 48.3669 110.441 48.174C109.727 47.6991 108.649 46.5713 108.649 46.3042C108.649 46.1855 108.586 46.0816 108.522 46.0816C108.475 46.0816 108.364 45.9332 108.316 45.7403C108.221 45.4583 108.174 45.5028 107.825 46.1855C107.619 46.601 107.048 47.3281 106.556 47.803Z" fill="#952A5A"/>
<path d="M42.9915 64.2898C43.0549 64.4382 43.1183 64.5866 43.1342 64.6311C43.2135 64.8983 43.372 65.6848 43.4355 66.1448C43.594 67.139 44.4343 68.8308 45.1954 69.6618C45.7979 70.3444 47.0347 71.4574 47.1774 71.4574C47.2566 71.4574 47.6372 71.6503 48.0177 71.9026C48.4141 72.14 48.7946 72.3477 48.8897 72.3477C48.969 72.3477 49.2069 72.4665 49.413 72.6297C49.6191 72.7781 49.8569 72.8968 49.9362 72.882C50.2216 72.8523 50.3485 73.713 50.1106 74.1285C49.8569 74.5885 49.5874 74.7221 48.6836 74.826C48.3348 74.8705 47.9067 74.9744 47.7323 75.0634C47.5579 75.1524 47.3676 75.2118 47.3042 75.197C47.2249 75.1821 46.8285 75.4938 46.4004 75.8796C45.6077 76.6067 44.91 77.9126 44.7356 78.9514C44.7039 79.1888 44.6563 79.3966 44.6405 79.3966C44.6246 79.3966 44.5929 79.5598 44.577 79.7676C44.5453 80.1385 44.4502 80.5244 44.1648 81.5483C44.0855 81.8303 43.9745 82.2903 43.927 82.5723C43.8318 83.1213 43.2927 83.9078 43.0073 83.9523C42.8964 83.9523 42.7061 83.982 42.5793 83.9969C42.0877 84.0414 41.7865 83.611 41.7865 82.8245C41.7865 82.409 41.6755 81.8748 41.5486 81.6374C41.4059 81.3999 41.3425 81.1773 41.3901 81.1328C41.4377 81.0883 41.3901 80.9696 41.295 80.8657C41.1998 80.7618 41.1047 80.5244 41.073 80.3315C40.962 79.634 40.851 79.3372 40.1216 77.9423C39.2179 76.1912 38.2348 75.2712 36.3005 74.4105C34.8259 73.7427 34.6198 73.5349 34.8576 72.9413C34.9686 72.6445 35.2064 72.4961 35.7138 72.3477C36.1102 72.2439 36.6334 71.9916 36.8871 71.7987C37.1408 71.5909 37.3469 71.4722 37.3469 71.5316C37.3469 71.5909 37.5531 71.4722 37.8226 71.2645C38.0763 71.0567 38.3458 70.8638 38.4251 70.8341C38.6629 70.7599 39.7094 69.2759 40.1851 68.341C40.5973 67.5397 41.1364 66.0854 41.3742 65.0763C41.4535 64.7202 42.3256 64.0376 42.6902 64.0376C42.7854 64.0376 42.9122 64.1563 42.9915 64.2898ZM40.7876 70.8044C40.4229 71.4277 39.0435 72.7336 38.4251 73.0304C37.9812 73.253 37.9653 73.2678 38.2507 73.4607C38.4092 73.5794 38.5995 73.6833 38.6788 73.6833C38.9483 73.6833 40.8351 75.2415 40.8351 75.4492C40.8351 75.5234 40.8986 75.6125 40.962 75.6421C41.1205 75.7015 42.0085 77.0964 42.1036 77.4526C42.3097 78.1204 42.7695 77.6603 43.0073 76.577C43.2293 75.5234 45.2905 73.6833 46.6858 73.2975L47.2566 73.1491L46.7017 72.882C45.6711 72.3774 43.5306 70.5967 43.5306 70.2554C43.5306 70.196 43.4355 70.0773 43.3245 70.0179C43.1183 69.8844 42.6585 69.083 42.7061 68.8901C42.7219 68.8308 42.6585 68.7862 42.5475 68.7862C42.4524 68.7862 42.4048 68.7417 42.4683 68.6972C42.5158 68.6527 42.4841 68.5191 42.3731 68.4301C42.2463 68.2817 42.0719 68.4894 41.6279 69.2908C41.3108 69.8695 40.9303 70.5522 40.7876 70.8044Z" fill="#952A5A"/>
<path d="M14.3564 73.1342C16.6238 74.1879 16.9567 74.5292 16.3225 75.1821C16.0371 75.4789 15.609 75.3899 14.8004 74.8556C14.5467 74.6776 13.8491 74.3066 13.2466 74.0246C12.1208 73.4904 11.8037 73.1046 12.1367 72.7187C12.4379 72.3774 12.9136 72.4516 14.3564 73.1342Z" fill="#952A5A"/>
<path d="M93.9987 74.5885C94.2365 74.8408 94.2207 74.9002 93.856 75.3157C93.634 75.5531 93.3645 75.7609 93.2852 75.7609C93.1901 75.7609 92.8095 75.9983 92.429 76.2803C92.0643 76.5622 91.7155 76.7996 91.6521 76.7996C91.5094 76.7996 90.4629 77.5416 89.9397 78.0165C89.5274 78.4023 89.3055 78.4914 88.9884 78.4468C88.9249 78.4468 88.8774 78.5062 88.8774 78.6101C88.8774 78.6991 88.7347 78.6397 88.5761 78.4765C88.37 78.2688 88.2907 78.0462 88.3541 77.8236C88.4493 77.4377 90.2568 75.7757 90.5739 75.7609C90.6849 75.7609 90.78 75.7015 90.78 75.6421C90.78 75.5679 91.0337 75.3899 91.335 75.2266C91.6362 75.0782 91.8899 74.9002 91.8899 74.8556C91.8899 74.7369 92.9047 74.3956 93.412 74.3363C93.6023 74.3214 93.8718 74.4253 93.9987 74.5885Z" fill="#952A5A"/>
</g>
</svg>
