<svg width="32" height="32" viewBox="0 0 32 32" fill="none" xmlns="http://www.w3.org/2000/svg">
<g id="square chevron down 1" clip-path="url(#clip0_351_8664)">
<g id="Vector">
<path d="M10.3125 7.75L18.625 16L10.3125 24.2812C10.125 24.4896 10.0312 24.7344 10.0312 25.0156C10.0312 25.2969 10.125 25.5312 10.3125 25.7188C10.5208 25.9063 10.7604 26 11.0312 26C11.3021 26 11.5417 25.9063 11.75 25.7188L20.7188 16.7812C20.8229 16.6771 20.8958 16.5573 20.9375 16.4219C20.9792 16.2865 21 16.1458 21 16C21 15.875 20.9792 15.7448 20.9375 15.6094C20.8958 15.474 20.8229 15.3542 20.7188 15.25L11.75 6.3125C11.5417 6.125 11.3021 6.03125 11.0313 6.03125C10.7604 6.03125 10.5208 6.125 10.3125 6.3125C10.125 6.5 10.0313 6.73437 10.0313 7.01562C10.0313 7.29688 10.125 7.54167 10.3125 7.75ZM0 4L0 28C0 29.1042 0.390621 30.0469 1.17188 30.8281C1.95313 31.6094 2.89583 32 4 32H28C29.1042 32 30.0469 31.6094 30.8281 30.8281C31.6094 30.0469 32 29.1042 32 28V4C32 2.89583 31.6094 1.95313 30.8281 1.17188C30.0469 0.390621 29.1042 0 28 0H4C2.89583 0 1.95313 0.390621 1.17188 1.17188C0.390621 1.95313 0 2.89583 0 4ZM28 2C28.5417 2 29.0104 2.19791 29.4063 2.59375C29.8021 2.98959 30 3.45833 30 4V28C30 28.5417 29.8021 29.0104 29.4062 29.4062C29.0104 29.8021 28.5417 30 28 30H4C3.45833 30 2.98958 29.8021 2.59375 29.4062C2.19792 29.0104 2 28.5417 2 28L2 4C2 3.45833 2.19792 2.98959 2.59375 2.59375C2.98958 2.19791 3.45833 2 4 2H28Z" fill="#007A91"/>
<path d="M10.3125 7.75L18.625 16L10.3125 24.2812C10.125 24.4896 10.0312 24.7344 10.0312 25.0156C10.0312 25.2969 10.125 25.5312 10.3125 25.7188C10.5208 25.9063 10.7604 26 11.0312 26C11.3021 26 11.5417 25.9063 11.75 25.7188L20.7188 16.7812C20.8229 16.6771 20.8958 16.5573 20.9375 16.4219C20.9792 16.2865 21 16.1458 21 16C21 15.875 20.9792 15.7448 20.9375 15.6094C20.8958 15.474 20.8229 15.3542 20.7188 15.25L11.75 6.3125C11.5417 6.125 11.3021 6.03125 11.0313 6.03125C10.7604 6.03125 10.5208 6.125 10.3125 6.3125C10.125 6.5 10.0313 6.73437 10.0313 7.01562C10.0313 7.29688 10.125 7.54167 10.3125 7.75ZM0 4L0 28C0 29.1042 0.390621 30.0469 1.17188 30.8281C1.95313 31.6094 2.89583 32 4 32H28C29.1042 32 30.0469 31.6094 30.8281 30.8281C31.6094 30.0469 32 29.1042 32 28V4C32 2.89583 31.6094 1.95313 30.8281 1.17188C30.0469 0.390621 29.1042 0 28 0H4C2.89583 0 1.95313 0.390621 1.17188 1.17188C0.390621 1.95313 0 2.89583 0 4ZM28 2C28.5417 2 29.0104 2.19791 29.4063 2.59375C29.8021 2.98959 30 3.45833 30 4V28C30 28.5417 29.8021 29.0104 29.4062 29.4062C29.0104 29.8021 28.5417 30 28 30H4C3.45833 30 2.98958 29.8021 2.59375 29.4062C2.19792 29.0104 2 28.5417 2 28L2 4C2 3.45833 2.19792 2.98959 2.59375 2.59375C2.98958 2.19791 3.45833 2 4 2H28Z" fill="black" fill-opacity="0.2"/>
<path d="M10.3125 7.75L18.625 16L10.3125 24.2812C10.125 24.4896 10.0312 24.7344 10.0312 25.0156C10.0312 25.2969 10.125 25.5312 10.3125 25.7188C10.5208 25.9063 10.7604 26 11.0312 26C11.3021 26 11.5417 25.9063 11.75 25.7188L20.7188 16.7812C20.8229 16.6771 20.8958 16.5573 20.9375 16.4219C20.9792 16.2865 21 16.1458 21 16C21 15.875 20.9792 15.7448 20.9375 15.6094C20.8958 15.474 20.8229 15.3542 20.7188 15.25L11.75 6.3125C11.5417 6.125 11.3021 6.03125 11.0313 6.03125C10.7604 6.03125 10.5208 6.125 10.3125 6.3125C10.125 6.5 10.0313 6.73437 10.0313 7.01562C10.0313 7.29688 10.125 7.54167 10.3125 7.75ZM0 4L0 28C0 29.1042 0.390621 30.0469 1.17188 30.8281C1.95313 31.6094 2.89583 32 4 32H28C29.1042 32 30.0469 31.6094 30.8281 30.8281C31.6094 30.0469 32 29.1042 32 28V4C32 2.89583 31.6094 1.95313 30.8281 1.17188C30.0469 0.390621 29.1042 0 28 0H4C2.89583 0 1.95313 0.390621 1.17188 1.17188C0.390621 1.95313 0 2.89583 0 4ZM28 2C28.5417 2 29.0104 2.19791 29.4063 2.59375C29.8021 2.98959 30 3.45833 30 4V28C30 28.5417 29.8021 29.0104 29.4062 29.4062C29.0104 29.8021 28.5417 30 28 30H4C3.45833 30 2.98958 29.8021 2.59375 29.4062C2.19792 29.0104 2 28.5417 2 28L2 4C2 3.45833 2.19792 2.98959 2.59375 2.59375C2.98958 2.19791 3.45833 2 4 2H28Z" fill="black" fill-opacity="0.2"/>
</g>
</g>
<defs>
<clipPath id="clip0_351_8664">
<rect width="32" height="32" fill="white" transform="matrix(0 -1 1 0 0 32)"/>
</clipPath>
</defs>
</svg>
