<svg width="32" height="32" viewBox="0 0 32 32" fill="none" xmlns="http://www.w3.org/2000/svg">
<g id="clock four 1" clip-path="url(#clip0_302_1163)">
<path id="Vector" d="M29 16C29 18.375 28.4167 20.5417 27.25 22.5C26.125 24.4583 24.5417 26.0417 22.5 27.25C20.4583 28.4167 18.2917 29 16 29C13.7083 29 11.5417 28.4167 9.5 27.25C7.45832 26.0417 5.87501 24.4583 4.75 22.5C3.58333 20.5417 3 18.375 3 16C3 13.625 3.58333 11.4583 4.75 9.5C5.87501 7.54166 7.45832 5.95834 9.5 4.75C11.5417 3.58333 13.7083 3 16 3C18.2917 3 20.4583 3.58333 22.5 4.75C24.5417 5.95834 26.125 7.54166 27.25 9.5C28.4167 11.4583 29 13.625 29 16ZM0 16C0.041667 18.9167 0.749993 21.5833 2.125 24C3.54167 26.4167 5.49999 28.375 8 29.875C10.5417 31.2917 13.2083 32 16 32C18.7917 32 21.4583 31.2917 24 29.875C26.5 28.375 28.4583 26.4167 29.875 24C31.25 21.5833 31.9583 18.9167 32 16C31.9583 13.0833 31.25 10.4167 29.875 8C28.4583 5.58332 26.5 3.62501 24 2.125C21.4583 0.708326 18.7917 0 16 0C13.2083 0 10.5417 0.708326 8 2.125C5.49999 3.62501 3.54167 5.58332 2.125 8C0.749993 10.4167 0.041667 13.0833 0 16ZM14.5 7.5V16C14.5 16.5417 14.7292 16.9583 15.1875 17.25L21.1875 21.25C21.9792 21.7083 22.6667 21.5625 23.25 20.8125C23.7083 20.0208 23.5625 19.3333 22.8125 18.75L17.5 15.1875V7.5C17.4167 6.58333 16.9167 6.08333 16 6C15.0833 6.08333 14.5833 6.58333 14.5 7.5Z" fill="black"/>
</g>
<defs>
<clipPath id="clip0_302_1163">
<rect width="32" height="32" fill="white"/>
</clipPath>
</defs>
</svg>
