<svg width="70" height="60" viewBox="0 0 70 60" fill="none" xmlns="http://www.w3.org/2000/svg">
<g id="download3 1" clip-path="url(#clip0_357_10299)">
<g id="Vector">
<path d="M44.9896 42.2596L37.3333 51.3462V18.4615C37.3333 17.8365 37.1024 17.2957 36.6406 16.8389C36.1788 16.3822 35.6319 16.1538 35 16.1538C34.368 16.1538 33.8212 16.3822 33.3594 16.8389C32.8976 17.2957 32.6667 17.8365 32.6667 18.4615V51.4183L24.9375 42.2596C24.5 41.7788 23.9531 41.5385 23.2969 41.5385C22.6406 41.5385 22.0938 41.7788 21.6562 42.2596C21.2187 42.6923 21 43.2332 21 43.8822C21 44.5313 21.2187 45.0721 21.6562 45.5048L33.1771 59.351C33.4201 59.5913 33.6996 59.7596 34.0156 59.8558C34.3316 59.9519 34.6354 60 34.9271 60C35.2674 60 35.5955 59.9519 35.9115 59.8558C36.2274 59.7596 36.5069 59.5913 36.75 59.351L48.2708 45.5048C48.7083 45.0721 48.9271 44.5313 48.9271 43.8822C48.9271 43.2332 48.7083 42.6923 48.2708 42.2596C47.8333 41.7788 47.2865 41.5385 46.6302 41.5385C45.974 41.5385 45.4271 41.7788 44.9896 42.2596ZM67.6667 0H2.33333C1.70138 0 1.15452 0.228362 0.692708 0.685096C0.2309 1.14183 0 1.68269 0 2.30769V20.7692C0 21.3942 0.2309 21.9351 0.692708 22.3918C1.15452 22.8486 1.70138 23.0769 2.33333 23.0769C2.96528 23.0769 3.51215 22.8486 3.97396 22.3918C4.43577 21.9351 4.66667 21.3942 4.66667 20.7692V4.61538H65.3333V20.7692C65.3333 21.3942 65.5642 21.9351 66.026 22.3918C66.4878 22.8486 67.0347 23.0769 67.6667 23.0769C68.2986 23.0769 68.8455 22.8486 69.3073 22.3918C69.7691 21.9351 70 21.3942 70 20.7692V2.30769C70 1.68269 69.7691 1.14183 69.3073 0.685096C68.8455 0.228362 68.2986 0 67.6667 0Z" fill="#007A91"/>
<path d="M44.9896 42.2596L37.3333 51.3462V18.4615C37.3333 17.8365 37.1024 17.2957 36.6406 16.8389C36.1788 16.3822 35.6319 16.1538 35 16.1538C34.368 16.1538 33.8212 16.3822 33.3594 16.8389C32.8976 17.2957 32.6667 17.8365 32.6667 18.4615V51.4183L24.9375 42.2596C24.5 41.7788 23.9531 41.5385 23.2969 41.5385C22.6406 41.5385 22.0938 41.7788 21.6562 42.2596C21.2187 42.6923 21 43.2332 21 43.8822C21 44.5313 21.2187 45.0721 21.6562 45.5048L33.1771 59.351C33.4201 59.5913 33.6996 59.7596 34.0156 59.8558C34.3316 59.9519 34.6354 60 34.9271 60C35.2674 60 35.5955 59.9519 35.9115 59.8558C36.2274 59.7596 36.5069 59.5913 36.75 59.351L48.2708 45.5048C48.7083 45.0721 48.9271 44.5313 48.9271 43.8822C48.9271 43.2332 48.7083 42.6923 48.2708 42.2596C47.8333 41.7788 47.2865 41.5385 46.6302 41.5385C45.974 41.5385 45.4271 41.7788 44.9896 42.2596ZM67.6667 0H2.33333C1.70138 0 1.15452 0.228362 0.692708 0.685096C0.2309 1.14183 0 1.68269 0 2.30769V20.7692C0 21.3942 0.2309 21.9351 0.692708 22.3918C1.15452 22.8486 1.70138 23.0769 2.33333 23.0769C2.96528 23.0769 3.51215 22.8486 3.97396 22.3918C4.43577 21.9351 4.66667 21.3942 4.66667 20.7692V4.61538H65.3333V20.7692C65.3333 21.3942 65.5642 21.9351 66.026 22.3918C66.4878 22.8486 67.0347 23.0769 67.6667 23.0769C68.2986 23.0769 68.8455 22.8486 69.3073 22.3918C69.7691 21.9351 70 21.3942 70 20.7692V2.30769C70 1.68269 69.7691 1.14183 69.3073 0.685096C68.8455 0.228362 68.2986 0 67.6667 0Z" fill="black" fill-opacity="0.2"/>
<path d="M44.9896 42.2596L37.3333 51.3462V18.4615C37.3333 17.8365 37.1024 17.2957 36.6406 16.8389C36.1788 16.3822 35.6319 16.1538 35 16.1538C34.368 16.1538 33.8212 16.3822 33.3594 16.8389C32.8976 17.2957 32.6667 17.8365 32.6667 18.4615V51.4183L24.9375 42.2596C24.5 41.7788 23.9531 41.5385 23.2969 41.5385C22.6406 41.5385 22.0938 41.7788 21.6562 42.2596C21.2187 42.6923 21 43.2332 21 43.8822C21 44.5313 21.2187 45.0721 21.6562 45.5048L33.1771 59.351C33.4201 59.5913 33.6996 59.7596 34.0156 59.8558C34.3316 59.9519 34.6354 60 34.9271 60C35.2674 60 35.5955 59.9519 35.9115 59.8558C36.2274 59.7596 36.5069 59.5913 36.75 59.351L48.2708 45.5048C48.7083 45.0721 48.9271 44.5313 48.9271 43.8822C48.9271 43.2332 48.7083 42.6923 48.2708 42.2596C47.8333 41.7788 47.2865 41.5385 46.6302 41.5385C45.974 41.5385 45.4271 41.7788 44.9896 42.2596ZM67.6667 0H2.33333C1.70138 0 1.15452 0.228362 0.692708 0.685096C0.2309 1.14183 0 1.68269 0 2.30769V20.7692C0 21.3942 0.2309 21.9351 0.692708 22.3918C1.15452 22.8486 1.70138 23.0769 2.33333 23.0769C2.96528 23.0769 3.51215 22.8486 3.97396 22.3918C4.43577 21.9351 4.66667 21.3942 4.66667 20.7692V4.61538H65.3333V20.7692C65.3333 21.3942 65.5642 21.9351 66.026 22.3918C66.4878 22.8486 67.0347 23.0769 67.6667 23.0769C68.2986 23.0769 68.8455 22.8486 69.3073 22.3918C69.7691 21.9351 70 21.3942 70 20.7692V2.30769C70 1.68269 69.7691 1.14183 69.3073 0.685096C68.8455 0.228362 68.2986 0 67.6667 0Z" fill="black" fill-opacity="0.2"/>
</g>
</g>
<defs>
<clipPath id="clip0_357_10299">
<rect width="70" height="60" fill="white"/>
</clipPath>
</defs>
</svg>
