<svg width="115" height="109" viewBox="0 0 115 109" fill="none" xmlns="http://www.w3.org/2000/svg">
<g id="Vector" filter="url(#filter0_d_370_1890)">
<path d="M91.3868 93.0481L82.761 90.6728V66.6104L90.976 68.9857L102.888 24.3722L42.7131 8.15849L38.7083 23.0297H31.9309L37.9894 0L111 19.7249L91.3868 93.0481ZM79.6804 101H4V25.0951H79.6804V101ZM73.1084 31.7045H10.572V77.8671H73.1084V31.7045ZM29.7745 64.6483L37.2706 52.4622L44.7668 60.001L55.1382 44.407L65.9203 71.2577H18.0681L24.1267 59.0716L29.7745 64.6483ZM25.2562 51.7393C23.9555 51.7393 22.826 51.2573 21.8676 50.2935C20.9091 49.3296 20.4299 48.1592 20.4299 46.7822C20.4299 45.4052 20.9091 44.2348 21.8676 43.271C22.826 42.3071 23.9555 41.8252 25.2562 41.8252C26.6254 41.8252 27.7892 42.3071 28.7476 43.271C29.706 44.2348 30.1852 45.4052 30.1852 46.7822C30.1852 48.1592 29.706 49.3296 28.7476 50.2935C27.7892 51.2573 26.6254 51.7393 25.2562 51.7393Z" fill="white"/>
</g>
<defs>
<filter id="filter0_d_370_1890" x="0" y="0" width="115" height="109" filterUnits="userSpaceOnUse" color-interpolation-filters="sRGB">
<feFlood flood-opacity="0" result="BackgroundImageFix"/>
<feColorMatrix in="SourceAlpha" type="matrix" values="0 0 0 0 0 0 0 0 0 0 0 0 0 0 0 0 0 0 127 0" result="hardAlpha"/>
<feOffset dy="4"/>
<feGaussianBlur stdDeviation="2"/>
<feComposite in2="hardAlpha" operator="out"/>
<feColorMatrix type="matrix" values="0 0 0 0 0 0 0 0 0 0 0 0 0 0 0 0 0 0 0.25 0"/>
<feBlend mode="normal" in2="BackgroundImageFix" result="effect1_dropShadow_370_1890"/>
<feBlend mode="normal" in="SourceGraphic" in2="effect1_dropShadow_370_1890" result="shape"/>
</filter>
</defs>
</svg>
