<svg width="79" height="79" viewBox="0 0 79 79" fill="none" xmlns="http://www.w3.org/2000/svg">
<g id="&#240;&#159;&#166;&#134; icon &#34;link&#34;">
<path id="Vector" d="M12.7069 39.0985C12.7069 33.527 17.2358 28.9982 22.8073 28.9982H35.84V22.8076H22.8073C13.8147 22.8076 6.51636 30.106 6.51636 39.0985C6.51636 48.0911 13.8147 55.3895 22.8073 55.3895H35.84V49.1989H22.8073C17.2358 49.1989 12.7069 44.67 12.7069 39.0985ZM26.0655 42.3567H52.131V35.8404H26.0655V42.3567ZM55.3891 22.8076H42.3564V28.9982H55.3891C60.9606 28.9982 65.4895 33.527 65.4895 39.0985C65.4895 44.67 60.9606 49.1989 55.3891 49.1989H42.3564V55.3895H55.3891C64.3817 55.3895 71.6801 48.0911 71.6801 39.0985C71.6801 30.106 64.3817 22.8076 55.3891 22.8076Z" fill="#007A91"/>
</g>
</svg>
