<svg width="77" height="71" viewBox="0 0 77 71" fill="none" xmlns="http://www.w3.org/2000/svg">
<g id="&#240;&#159;&#166;&#134; icon &#34;location pin&#34;">
<path id="Vector" d="M38.098 6.08008C25.8113 6.08008 15.874 15.288 15.874 26.6729C15.874 31.7917 17.4614 36.5869 20.3506 40.9114C23.3667 45.4418 27.3352 49.3251 30.3831 53.8555C31.8753 56.0619 32.9547 58.1212 34.0977 60.504C34.9231 62.122 35.5899 64.9168 38.098 64.9168C40.6061 64.9168 41.2728 62.122 42.0666 60.504C43.2413 58.1212 44.289 56.0619 45.7811 53.8555C48.829 49.3545 52.7976 45.4713 55.8137 40.9114C58.7345 36.5869 60.322 31.7917 60.322 26.6729C60.322 15.288 50.3847 6.08008 38.098 6.08008ZM38.098 34.763C33.7167 34.763 30.1609 31.4681 30.1609 27.4084C30.1609 23.3487 33.7167 20.0538 38.098 20.0538C42.4793 20.0538 46.0351 23.3487 46.0351 27.4084C46.0351 31.4681 42.4793 34.763 38.098 34.763Z" fill="#007A91"/>
</g>
</svg>
