<svg width="24" height="32" viewBox="0 0 24 32" fill="none" xmlns="http://www.w3.org/2000/svg">
<g id="location 1" clip-path="url(#clip0_302_1165)">
<path id="Vector" d="M12 2C12.6667 2 13.3281 2.06771 13.9844 2.20312C14.6406 2.33854 15.2812 2.53125 15.9062 2.78125C16.4896 3.03125 17.0469 3.33854 17.5781 3.70312C18.1094 4.06771 18.6042 4.47916 19.0625 4.9375C19.5208 5.39584 19.9323 5.89062 20.2969 6.42188C20.6615 6.95313 20.9687 7.51041 21.2188 8.09375C21.4688 8.71875 21.6615 9.35937 21.7969 10.0156C21.9323 10.6719 22 11.3333 22 12C22 12.1875 21.9323 12.5885 21.7969 13.2031C21.6615 13.8177 21.3125 14.7604 20.75 16.0312C20.3542 16.9063 19.8802 17.8542 19.3281 18.875C18.776 19.8958 18.1667 20.9479 17.5 22.0312C16.8958 23.0313 16.2708 24.0052 15.625 24.9531C14.9792 25.901 14.3646 26.7604 13.7812 27.5312C13.3646 28.0521 13.0104 28.4844 12.7188 28.8281C12.4271 29.1719 12.1875 29.4375 12 29.625C11.8125 29.4375 11.5677 29.1771 11.2656 28.8438C10.9635 28.5104 10.6146 28.0729 10.2188 27.5312C9.61458 26.7604 8.99479 25.9063 8.35938 24.9688C7.72396 24.0312 7.09375 23.0625 6.46875 22.0625C5.82291 21 5.22396 19.9583 4.67188 18.9375C4.11979 17.9167 3.64583 16.9583 3.25 16.0625C2.6875 14.7917 2.33854 13.8438 2.20312 13.2188C2.06771 12.5937 2 12.1875 2 12C2 11.3333 2.06771 10.6719 2.20312 10.0156C2.33854 9.35937 2.53125 8.71875 2.78125 8.09375C3.03125 7.51041 3.33854 6.95313 3.70312 6.42188C4.06771 5.89062 4.47916 5.39584 4.9375 4.9375C5.39584 4.47916 5.89062 4.06771 6.42188 3.70312C6.95313 3.33854 7.51041 3.03125 8.09375 2.78125C8.71875 2.53125 9.35937 2.33854 10.0156 2.20312C10.6719 2.06771 11.3333 2 12 2ZM12 0C10.3333 0 8.77605 0.312497 7.32812 0.9375C5.8802 1.5625 4.60938 2.42187 3.51562 3.51562C2.42187 4.60938 1.5625 5.8802 0.9375 7.32812C0.312497 8.77605 0 10.3333 0 12C0 13.25 0.531245 14.9948 1.59375 17.2344C2.65626 19.474 3.87499 21.6875 5.25 23.875C6.62501 26.0625 7.96874 27.9635 9.28125 29.5781C10.5938 31.1927 11.5 32 12 32C12.5 32 13.4062 31.1927 14.7188 29.5781C16.0313 27.9635 17.375 26.0573 18.75 23.8594C20.125 21.6614 21.3437 19.4427 22.4062 17.2031C23.4688 14.9635 24 13.2292 24 12C24 10.3333 23.6875 8.77605 23.0625 7.32812C22.4375 5.8802 21.5781 4.60938 20.4844 3.51562C19.3906 2.42187 18.1198 1.5625 16.6719 0.9375C15.224 0.312497 13.6667 0 12 0ZM12 7C10.625 7 9.44792 7.48958 8.46875 8.46875C7.48958 9.44792 7 10.625 7 12C7 13.375 7.48958 14.5521 8.46875 15.5312C9.44792 16.5104 10.625 17 12 17C13.375 17 14.5521 16.5104 15.5312 15.5312C16.5104 14.5521 17 13.375 17 12C17 10.625 16.5104 9.44792 15.5312 8.46875C14.5521 7.48958 13.375 7 12 7ZM12 15C11.1667 15 10.4583 14.7083 9.875 14.125C9.29166 13.5417 9 12.8333 9 12C9 11.1667 9.29166 10.4583 9.875 9.875C10.4583 9.29166 11.1667 9 12 9C12.8333 9 13.5417 9.29166 14.125 9.875C14.7083 10.4583 15 11.1667 15 12C15 12.8333 14.7083 13.5417 14.125 14.125C13.5417 14.7083 12.8333 15 12 15Z" fill="black"/>
</g>
<defs>
<clipPath id="clip0_302_1165">
<rect width="24" height="32" fill="white"/>
</clipPath>
</defs>
</svg>
