<svg width="30" height="30" viewBox="0 0 30 30" fill="none" xmlns="http://www.w3.org/2000/svg">
<g id="my location 1" clip-path="url(#clip0_302_1168)">
<path id="Vector" d="M14.6875 9.375C11.75 9.375 9.375 11.75 9.375 14.6875C9.375 17.625 11.75 20 14.6875 20C17.625 20 20 17.625 20 14.6875C20 11.75 17.625 9.375 14.6875 9.375ZM26.625 13.375C26 7.8125 21.5625 3.375 16 2.75V1.375C16 0.625 15.4375 0 14.6875 0C13.9375 0 13.375 0.625 13.375 1.375V2.75C7.8125 3.375 3.375 7.8125 2.75 13.375H1.375C0.625 13.375 0 13.9375 0 14.6875C0 15.4375 0.625 16 1.375 16H2.75C3.375 21.5625 7.8125 26 13.375 26.625V28C13.375 28.75 13.9375 29.375 14.6875 29.375C15.4375 29.375 16 28.75 16 28V26.625C21.5625 26 26 21.5625 26.625 16H28C28.75 16 29.375 15.4375 29.375 14.6875C29.375 13.9375 28.75 13.375 28 13.375H26.625ZM14.6875 24C9.5 24 5.375 19.875 5.375 14.6875C5.375 9.5 9.5 5.375 14.6875 5.375C19.875 5.375 24 9.5 24 14.6875C24 19.875 19.875 24 14.6875 24Z" fill="black"/>
</g>
<defs>
<clipPath id="clip0_302_1168">
<rect width="29.375" height="29.375" fill="white"/>
</clipPath>
</defs>
</svg>
