<svg width="19" height="18" viewBox="0 0 19 18" fill="none" xmlns="http://www.w3.org/2000/svg">
<g id="&#240;&#159;&#166;&#134; icon &#34;open in new&#34;">
<g id="Vector">
<path d="M14.6382 13.9545H3.8515V4.04546H9.24485V2.62988H3.8515C2.99627 2.62988 2.31055 3.26689 2.31055 4.04546V13.9545C2.31055 14.7331 2.99627 15.3701 3.8515 15.3701H14.6382C15.4857 15.3701 16.1791 14.7331 16.1791 13.9545V8.99997H14.6382V13.9545ZM10.7858 2.62988V4.04546H13.5518L5.97802 11.003L7.06439 12.001L14.6382 5.04344V7.5844H16.1791V2.62988H10.7858Z" fill="#007A91"/>
<path d="M14.6382 13.9545H3.8515V4.04546H9.24485V2.62988H3.8515C2.99627 2.62988 2.31055 3.26689 2.31055 4.04546V13.9545C2.31055 14.7331 2.99627 15.3701 3.8515 15.3701H14.6382C15.4857 15.3701 16.1791 14.7331 16.1791 13.9545V8.99997H14.6382V13.9545ZM10.7858 2.62988V4.04546H13.5518L5.97802 11.003L7.06439 12.001L14.6382 5.04344V7.5844H16.1791V2.62988H10.7858Z" fill="black" fill-opacity="0.2"/>
<path d="M14.6382 13.9545H3.8515V4.04546H9.24485V2.62988H3.8515C2.99627 2.62988 2.31055 3.26689 2.31055 4.04546V13.9545C2.31055 14.7331 2.99627 15.3701 3.8515 15.3701H14.6382C15.4857 15.3701 16.1791 14.7331 16.1791 13.9545V8.99997H14.6382V13.9545ZM10.7858 2.62988V4.04546H13.5518L5.97802 11.003L7.06439 12.001L14.6382 5.04344V7.5844H16.1791V2.62988H10.7858Z" fill="black" fill-opacity="0.2"/>
</g>
</g>
</svg>
