<svg width="47" height="48" viewBox="0 0 47 48" fill="none" xmlns="http://www.w3.org/2000/svg">
<g id="file pdf 1" clip-path="url(#clip0_357_10295)">
<path id="Vector" d="M6.06452 43.5H9.09677V48H6.06452C4.35886 47.9375 2.93751 47.3438 1.8004 46.2188C0.6633 45.0937 0.0631725 43.6875 0 42V6C0.0631725 4.31249 0.6633 2.90626 1.8004 1.78125C2.93751 0.656244 4.35886 0.0625005 6.06452 0H21.7944C23.4368 0 24.8582 0.593744 26.0585 1.78125L34.5867 10.2188C35.787 11.4063 36.3871 12.8437 36.3871 14.5312V27H31.8387V15H24.2581C23.3737 15 22.6472 14.7188 22.0786 14.1562C21.5101 13.5937 21.2258 12.875 21.2258 12V4.5H6.06452C5.11693 4.5625 4.61156 5.0625 4.54839 6V42C4.61156 42.9375 5.11693 43.4375 6.06452 43.5ZM16.6774 33H19.7097C21.2258 33.0625 22.4892 33.5625 23.5 34.5C24.4476 35.5 24.953 36.75 25.0161 38.25C24.953 39.75 24.4476 41 23.5 42C22.4892 42.9375 21.2258 43.4375 19.7097 43.5H18.1935V46.5C18.1304 47.4375 17.625 47.9375 16.6774 48C15.7298 47.9375 15.2245 47.4375 15.1613 46.5V42V34.5C15.2245 33.5625 15.7298 33.0625 16.6774 33ZM19.7097 40.5C21.0995 40.375 21.8575 39.625 21.9839 38.25C21.8575 36.875 21.0995 36.125 19.7097 36H18.1935V40.5H19.7097ZM28.8065 33H31.8387C33.1022 33.0625 34.1761 33.5 35.0605 34.3125C35.8817 35.1875 36.3239 36.25 36.3871 37.5V43.5C36.3239 44.75 35.8817 45.8125 35.0605 46.6875C34.1761 47.5 33.1022 47.9375 31.8387 48H28.8065C27.8589 47.9375 27.3535 47.4375 27.2903 46.5V34.5C27.3535 33.5625 27.8589 33.0625 28.8065 33ZM31.8387 45C32.7863 44.9375 33.2917 44.4375 33.3548 43.5V37.5C33.2917 36.5625 32.7863 36.0625 31.8387 36H30.3226V45H31.8387ZM39.4194 34.5C39.4825 33.5625 39.9879 33.0625 40.9355 33H45.4839C46.4315 33.0625 46.9368 33.5625 47 34.5C46.9368 35.4375 46.4315 35.9375 45.4839 36H42.4516V39H45.4839C46.4315 39.0625 46.9368 39.5625 47 40.5C46.9368 41.4375 46.4315 41.9375 45.4839 42H42.4516V46.5C42.3884 47.4375 41.8831 47.9375 40.9355 48C39.9879 47.9375 39.4825 47.4375 39.4194 46.5V40.5V34.5Z" fill="#952A5A"/>
</g>
<defs>
<clipPath id="clip0_357_10295">
<rect width="47" height="48" fill="white"/>
</clipPath>
</defs>
</svg>
