<?xml version="1.0" encoding="utf-8"?>
<!-- Generator: Adobe Illustrator 27.0.0, SVG Export Plug-In . SVG Version: 6.00 Build 0)  -->
<svg version="1.1" id="Layer_1" xmlns="http://www.w3.org/2000/svg" xmlns:xlink="http://www.w3.org/1999/xlink" x="0px" y="0px"
	 viewBox="0 0 180.7 223.7" style="enable-background:new 0 0 180.7 223.7;" xml:space="preserve">
<style type="text/css">
	.st0{fill-rule:evenodd;clip-rule:evenodd;fill:#4D5903;}
	.st1{fill:#FFBE98;}
	.st2{fill:#F3AF91;}
	.st3{fill:#5F220D;}
</style>
<g id="Frame_12">
	<g id="Group">
		<g id="Group_2">
			<path id="Subtract" class="st0" d="M179.9,187.9c-3.5-6.3-16.1-11-23.8-12.8l-64.4-15h-0.2l-66.3,15c-6.6,1.5-18.4,5.1-22.1,10.2
				c-1.1,1.4-1.8,2.9-2.5,4.4l-0.8,34h35.4l3-5.6v5.6h46.8h6.4h55.7v-5.6l3,5.6h30.4L179.9,187.9z"/>
		</g>
	</g>
	<path id="Vector" class="st1" d="M104.2,176.7H78.7c-4.9,0-8.7-3.6-8.7-7.9v-37.1c0-7.4,6.7-13.4,14.9-13.4H98
		c8.3,0,14.9,6.1,14.9,13.4v37.1C112.9,173.2,108.9,176.7,104.2,176.7z"/>
	<path id="Vector_2" class="st2" d="M46.3,111.3c0,0-10.1,0.3-14.4-13.6c-4.3-14.1,4.3-13.8,9.2-10.1L46.3,111.3z"/>
	<path id="Vector_3" class="st2" d="M134,111.3c0,0,10.1,0.3,14.4-13.6c4.3-14.1-4.3-13.8-9.2-10.1L134,111.3z"/>
	<path id="Vector_4" class="st1" d="M140.2,83.1c0,31.3-15.3,62.5-47.9,63.1c-34.1,0.6-50.9-32-50.9-63.1c0-31.3,1.8-55.9,49.4-55.5
		C141,28.1,140.2,51.8,140.2,83.1z"/>
	<path id="Vector_5" class="st3" d="M137.3,95c-0.5-1.1-11.7,35.6-21.7,37.4c-10,1.8,0.8-8.1-1.7-11.8c-2.5-3.7-13.3-9.2-17.2-7.9
		c-2.6,1-3.4,2.3-6,2.3c-2.5,0-3.5-1.4-6-2.3c-3.8-1.5-14.7,4-17.2,7.9c-2.5,3.7,8.4,13.4-1.7,11.8C55.7,131,45.2,97.1,45.2,97.1
		c-5.4-3.6-2.2-4.7,3.1,29.2c4.6,32.2,38.7,32,42.5,31.8c3.7,0.1,37.9,0.4,42.5-31.8C137.9,92.2,143.4,91.6,137.3,95z M90.8,144
		c0,0-13.1-3.2-14.9-11.5c-0.9-4.3-4.6-11.9-2.9-11c1.7,0.9,17.5-1.5,17.5-1.5c0-0.1,0.2-0.4,0.2-0.4s0,0.3,0.2,0.4
		c0,0,15.4,2.3,17.5,1.5c2.1-0.8-0.8,6.7-1.7,11C104.8,140.6,90.8,144,90.8,144z"/>
	<path id="Vector_6" class="st3" d="M90.2,8.3c58-16.5,53.3,28.1,54.9,57.7c0.6,12-4,30.2-6.9,30.2c-4,0,2.6-15.6,0.5-32.5
		c-4.4-36-28.2-14.5-48.2-14.7C70,48.6,45,28.1,42.1,63.1c-2,24,6.5,36.4,1.1,34.3c-2.5-1-6-16.1-7.7-25.8c-0.2-1.4-0.2-2.9-0.2-4.3
		v0C35.3,34.7,32.2,24.8,90.2,8.3z"/>
</g>
</svg>
