<svg width="63" height="63" viewBox="0 0 63 63" fill="none" xmlns="http://www.w3.org/2000/svg">
    <g clip-path="url(#clip0_371_2364)">
    <path d="M15.7869 15.7869H47.2131V22.0574H15.7869V15.7869ZM15.7869 28.3279H37.7705V34.6721H15.7869V28.3279ZM56.6557 0H6.34426C4.57376 0 3.07378 0.614748 1.84426 1.84426C0.614748 3.07378 0 4.57376 0 6.34426V63L16.8197 50.3852H56.6557C58.4262 50.3852 59.9262 49.7705 61.1557 48.541C62.3853 47.3115 63 45.8361 63 44.1148V6.34426C63 4.57376 62.3853 3.07378 61.1557 1.84426C59.9262 0.614748 58.4262 0 56.6557 0ZM56.6557 44.1148H14.6803L6.34426 50.3852V6.34426H56.6557V44.1148Z" fill="#007A91"/>
    <path d="M15.7869 15.7869H47.2131V22.0574H15.7869V15.7869ZM15.7869 28.3279H37.7705V34.6721H15.7869V28.3279ZM56.6557 0H6.34426C4.57376 0 3.07378 0.614748 1.84426 1.84426C0.614748 3.07378 0 4.57376 0 6.34426V63L16.8197 50.3852H56.6557C58.4262 50.3852 59.9262 49.7705 61.1557 48.541C62.3853 47.3115 63 45.8361 63 44.1148V6.34426C63 4.57376 62.3853 3.07378 61.1557 1.84426C59.9262 0.614748 58.4262 0 56.6557 0ZM56.6557 44.1148H14.6803L6.34426 50.3852V6.34426H56.6557V44.1148Z" fill="black" fill-opacity="0.2"/>
    <path d="M15.7869 15.7869H47.2131V22.0574H15.7869V15.7869ZM15.7869 28.3279H37.7705V34.6721H15.7869V28.3279ZM56.6557 0H6.34426C4.57376 0 3.07378 0.614748 1.84426 1.84426C0.614748 3.07378 0 4.57376 0 6.34426V63L16.8197 50.3852H56.6557C58.4262 50.3852 59.9262 49.7705 61.1557 48.541C62.3853 47.3115 63 45.8361 63 44.1148V6.34426C63 4.57376 62.3853 3.07378 61.1557 1.84426C59.9262 0.614748 58.4262 0 56.6557 0ZM56.6557 44.1148H14.6803L6.34426 50.3852V6.34426H56.6557V44.1148Z" fill="black" fill-opacity="0.2"/>
    </g>
    <defs>
    <clipPath id="clip0_371_2364">
    <rect width="63" height="63" fill="white"/>
    </clipPath>
    </defs>
</svg>
