<svg width="27" height="27" viewBox="0 0 27 27" fill="none" xmlns="http://www.w3.org/2000/svg">
<g id="zoom in 1" clip-path="url(#clip0_351_8243)">
<g id="Vector">
<path d="M26.2812 24.375L21.3438 19.4688C22.1354 18.4687 22.776 17.3229 23.2656 16.0312C23.7552 14.7396 24 13.3958 24 12C24 10.3333 23.6875 8.77084 23.0625 7.3125C22.4375 5.85416 21.5833 4.58334 20.5 3.5C19.4167 2.41666 18.1458 1.5625 16.6875 0.9375C15.2292 0.312497 13.6667 0 12 0C10.3333 0 8.77084 0.312497 7.3125 0.9375C5.85416 1.5625 4.58334 2.41666 3.5 3.5C2.41666 4.58334 1.5625 5.85416 0.9375 7.3125C0.312497 8.77084 0 10.3333 0 12C0 13.6667 0.312497 15.2292 0.9375 16.6875C1.5625 18.1458 2.41666 19.4167 3.5 20.5C4.58334 21.5833 5.85416 22.4375 7.3125 23.0625C8.77084 23.6875 10.3333 24 12 24C13.4167 24 14.7656 23.7708 16.0469 23.3125C17.3281 22.8542 18.4687 22.1875 19.4688 21.3125L24.4062 26.25C24.5521 26.3958 24.7135 26.5 24.8906 26.5625C25.0677 26.625 25.2187 26.6562 25.3438 26.6562C25.4688 26.6562 25.6198 26.625 25.7969 26.5625C25.974 26.5 26.1354 26.3958 26.2812 26.25C26.5521 25.9792 26.6875 25.6667 26.6875 25.3125C26.6875 24.9583 26.5521 24.6458 26.2812 24.375ZM2.6875 12C2.6875 10.6875 2.92708 9.46876 3.40625 8.34375C3.88542 7.19791 4.54687 6.20834 5.39062 5.375C6.23438 4.54166 7.21874 3.875 8.34375 3.375C9.48959 2.89583 10.7083 2.65625 12 2.65625C13.3125 2.65625 14.5312 2.89583 15.6562 3.375C16.8021 3.875 17.7917 4.54166 18.625 5.375C19.4583 6.20834 20.125 7.19791 20.625 8.34375C21.1042 9.46876 21.3438 10.6875 21.3438 12C21.3438 13.25 21.099 14.4479 20.6094 15.5938C20.1198 16.7396 19.4792 17.7187 18.6875 18.5312C17.8125 19.3854 16.8177 20.0417 15.7031 20.5C14.5885 20.9583 13.4063 21.1875 12.1562 21.1875C10.8229 21.2292 9.57292 21.0104 8.40625 20.5312C7.26041 20.0729 6.26042 19.4271 5.40625 18.5938C4.55208 17.7604 3.88542 16.7708 3.40625 15.625C2.92708 14.5 2.6875 13.2917 2.6875 12ZM16 10.6562H13.3438V8C13.3438 7.58333 13.224 7.25521 12.9844 7.01562C12.7448 6.77604 12.4167 6.65625 12 6.65625C11.6042 6.65625 11.2865 6.77604 11.0469 7.01562C10.8073 7.25521 10.6875 7.58333 10.6875 8V10.6562H8C7.60417 10.6562 7.28646 10.776 7.04688 11.0156C6.80729 11.2552 6.6875 11.5833 6.6875 12C6.6875 12.3958 6.80729 12.7135 7.04688 12.9531C7.28646 13.1927 7.60417 13.3125 8 13.3125H10.6875V16C10.6875 16.3958 10.8073 16.7135 11.0469 16.9531C11.2865 17.1927 11.6042 17.3125 12 17.3125C12.4167 17.3125 12.7448 17.1927 12.9844 16.9531C13.224 16.7135 13.3438 16.3958 13.3438 16V13.3125H16C16.4167 13.3125 16.7448 13.1927 16.9844 12.9531C17.224 12.7135 17.3438 12.3958 17.3438 12C17.3438 11.5833 17.224 11.2552 16.9844 11.0156C16.7448 10.776 16.4167 10.6562 16 10.6562Z" fill="#007A91"/>
<path d="M26.2812 24.375L21.3438 19.4688C22.1354 18.4687 22.776 17.3229 23.2656 16.0312C23.7552 14.7396 24 13.3958 24 12C24 10.3333 23.6875 8.77084 23.0625 7.3125C22.4375 5.85416 21.5833 4.58334 20.5 3.5C19.4167 2.41666 18.1458 1.5625 16.6875 0.9375C15.2292 0.312497 13.6667 0 12 0C10.3333 0 8.77084 0.312497 7.3125 0.9375C5.85416 1.5625 4.58334 2.41666 3.5 3.5C2.41666 4.58334 1.5625 5.85416 0.9375 7.3125C0.312497 8.77084 0 10.3333 0 12C0 13.6667 0.312497 15.2292 0.9375 16.6875C1.5625 18.1458 2.41666 19.4167 3.5 20.5C4.58334 21.5833 5.85416 22.4375 7.3125 23.0625C8.77084 23.6875 10.3333 24 12 24C13.4167 24 14.7656 23.7708 16.0469 23.3125C17.3281 22.8542 18.4687 22.1875 19.4688 21.3125L24.4062 26.25C24.5521 26.3958 24.7135 26.5 24.8906 26.5625C25.0677 26.625 25.2187 26.6562 25.3438 26.6562C25.4688 26.6562 25.6198 26.625 25.7969 26.5625C25.974 26.5 26.1354 26.3958 26.2812 26.25C26.5521 25.9792 26.6875 25.6667 26.6875 25.3125C26.6875 24.9583 26.5521 24.6458 26.2812 24.375ZM2.6875 12C2.6875 10.6875 2.92708 9.46876 3.40625 8.34375C3.88542 7.19791 4.54687 6.20834 5.39062 5.375C6.23438 4.54166 7.21874 3.875 8.34375 3.375C9.48959 2.89583 10.7083 2.65625 12 2.65625C13.3125 2.65625 14.5312 2.89583 15.6562 3.375C16.8021 3.875 17.7917 4.54166 18.625 5.375C19.4583 6.20834 20.125 7.19791 20.625 8.34375C21.1042 9.46876 21.3438 10.6875 21.3438 12C21.3438 13.25 21.099 14.4479 20.6094 15.5938C20.1198 16.7396 19.4792 17.7187 18.6875 18.5312C17.8125 19.3854 16.8177 20.0417 15.7031 20.5C14.5885 20.9583 13.4063 21.1875 12.1562 21.1875C10.8229 21.2292 9.57292 21.0104 8.40625 20.5312C7.26041 20.0729 6.26042 19.4271 5.40625 18.5938C4.55208 17.7604 3.88542 16.7708 3.40625 15.625C2.92708 14.5 2.6875 13.2917 2.6875 12ZM16 10.6562H13.3438V8C13.3438 7.58333 13.224 7.25521 12.9844 7.01562C12.7448 6.77604 12.4167 6.65625 12 6.65625C11.6042 6.65625 11.2865 6.77604 11.0469 7.01562C10.8073 7.25521 10.6875 7.58333 10.6875 8V10.6562H8C7.60417 10.6562 7.28646 10.776 7.04688 11.0156C6.80729 11.2552 6.6875 11.5833 6.6875 12C6.6875 12.3958 6.80729 12.7135 7.04688 12.9531C7.28646 13.1927 7.60417 13.3125 8 13.3125H10.6875V16C10.6875 16.3958 10.8073 16.7135 11.0469 16.9531C11.2865 17.1927 11.6042 17.3125 12 17.3125C12.4167 17.3125 12.7448 17.1927 12.9844 16.9531C13.224 16.7135 13.3438 16.3958 13.3438 16V13.3125H16C16.4167 13.3125 16.7448 13.1927 16.9844 12.9531C17.224 12.7135 17.3438 12.3958 17.3438 12C17.3438 11.5833 17.224 11.2552 16.9844 11.0156C16.7448 10.776 16.4167 10.6562 16 10.6562Z" fill="black" fill-opacity="0.2"/>
<path d="M26.2812 24.375L21.3438 19.4688C22.1354 18.4687 22.776 17.3229 23.2656 16.0312C23.7552 14.7396 24 13.3958 24 12C24 10.3333 23.6875 8.77084 23.0625 7.3125C22.4375 5.85416 21.5833 4.58334 20.5 3.5C19.4167 2.41666 18.1458 1.5625 16.6875 0.9375C15.2292 0.312497 13.6667 0 12 0C10.3333 0 8.77084 0.312497 7.3125 0.9375C5.85416 1.5625 4.58334 2.41666 3.5 3.5C2.41666 4.58334 1.5625 5.85416 0.9375 7.3125C0.312497 8.77084 0 10.3333 0 12C0 13.6667 0.312497 15.2292 0.9375 16.6875C1.5625 18.1458 2.41666 19.4167 3.5 20.5C4.58334 21.5833 5.85416 22.4375 7.3125 23.0625C8.77084 23.6875 10.3333 24 12 24C13.4167 24 14.7656 23.7708 16.0469 23.3125C17.3281 22.8542 18.4687 22.1875 19.4688 21.3125L24.4062 26.25C24.5521 26.3958 24.7135 26.5 24.8906 26.5625C25.0677 26.625 25.2187 26.6562 25.3438 26.6562C25.4688 26.6562 25.6198 26.625 25.7969 26.5625C25.974 26.5 26.1354 26.3958 26.2812 26.25C26.5521 25.9792 26.6875 25.6667 26.6875 25.3125C26.6875 24.9583 26.5521 24.6458 26.2812 24.375ZM2.6875 12C2.6875 10.6875 2.92708 9.46876 3.40625 8.34375C3.88542 7.19791 4.54687 6.20834 5.39062 5.375C6.23438 4.54166 7.21874 3.875 8.34375 3.375C9.48959 2.89583 10.7083 2.65625 12 2.65625C13.3125 2.65625 14.5312 2.89583 15.6562 3.375C16.8021 3.875 17.7917 4.54166 18.625 5.375C19.4583 6.20834 20.125 7.19791 20.625 8.34375C21.1042 9.46876 21.3438 10.6875 21.3438 12C21.3438 13.25 21.099 14.4479 20.6094 15.5938C20.1198 16.7396 19.4792 17.7187 18.6875 18.5312C17.8125 19.3854 16.8177 20.0417 15.7031 20.5C14.5885 20.9583 13.4063 21.1875 12.1562 21.1875C10.8229 21.2292 9.57292 21.0104 8.40625 20.5312C7.26041 20.0729 6.26042 19.4271 5.40625 18.5938C4.55208 17.7604 3.88542 16.7708 3.40625 15.625C2.92708 14.5 2.6875 13.2917 2.6875 12ZM16 10.6562H13.3438V8C13.3438 7.58333 13.224 7.25521 12.9844 7.01562C12.7448 6.77604 12.4167 6.65625 12 6.65625C11.6042 6.65625 11.2865 6.77604 11.0469 7.01562C10.8073 7.25521 10.6875 7.58333 10.6875 8V10.6562H8C7.60417 10.6562 7.28646 10.776 7.04688 11.0156C6.80729 11.2552 6.6875 11.5833 6.6875 12C6.6875 12.3958 6.80729 12.7135 7.04688 12.9531C7.28646 13.1927 7.60417 13.3125 8 13.3125H10.6875V16C10.6875 16.3958 10.8073 16.7135 11.0469 16.9531C11.2865 17.1927 11.6042 17.3125 12 17.3125C12.4167 17.3125 12.7448 17.1927 12.9844 16.9531C13.224 16.7135 13.3438 16.3958 13.3438 16V13.3125H16C16.4167 13.3125 16.7448 13.1927 16.9844 12.9531C17.224 12.7135 17.3438 12.3958 17.3438 12C17.3438 11.5833 17.224 11.2552 16.9844 11.0156C16.7448 10.776 16.4167 10.6562 16 10.6562Z" fill="black" fill-opacity="0.2"/>
</g>
</g>
<defs>
<clipPath id="clip0_351_8243">
<rect width="26.6875" height="26.6562" fill="white"/>
</clipPath>
</defs>
</svg>
