<?xml version="1.0" encoding="utf-8"?>
<!-- Generator: Adobe Illustrator 27.0.0, SVG Export Plug-In . SVG Version: 6.00 Build 0)  -->
<svg version="1.1" id="Layer_1" xmlns="http://www.w3.org/2000/svg" xmlns:xlink="http://www.w3.org/1999/xlink" x="0px" y="0px"
	 viewBox="0 0 133 148.4" style="enable-background:new 0 0 133 148.4;" xml:space="preserve">
<style type="text/css">
	.st0{fill:#F2EDE8;}
	.st1{fill-rule:evenodd;clip-rule:evenodd;fill:#33453B;}
	.st2{fill:#FFBE98;}
	.st3{fill:#F3AF91;}
	.st4{fill:#FFFDFD;}
</style>
<g id="Frame_427318961">
	<rect class="st0" width="133" height="148"/>
	<g id="Group">
		<g id="Group_2">
			<path id="Subtract" class="st1" d="M10.4,124.6c2.2-4.2,10.2-7.3,15-8.5l40.8-10h0.1l41.9,10c4.2,1,11.6,3.4,14,6.8
				c0.7,0.9,1.2,1.9,1.6,2.9l0.5,22.6h-22.4l-1.9-3.7v3.7H70.4h-4.1H31.1v-3.7l-1.9,3.7H9.9L10.4,124.6z"/>
		</g>
	</g>
	<path id="Vector" class="st2" d="M58.3,117.2h16.1c3.1,0,5.5-2.4,5.5-5.2V87.4c0-4.9-4.3-8.9-9.4-8.9h-8.3c-5.2,0-9.4,4-9.4,8.9
		V112C52.8,114.8,55.3,117.2,58.3,117.2z"/>
	<path id="Vector_2" class="st3" d="M95,73.8c0,0,6.4,0.2,9.1-9c2.7-9.3-2.7-9.1-5.8-6.7L95,73.8z"/>
	<path id="Vector_3" class="st3" d="M39.5,73.8c0,0-6.4,0.2-9.1-9c-2.7-9.3,2.7-9.1,5.8-6.7L39.5,73.8z"/>
	<path id="Vector_4" class="st2" d="M35.5,55.1c0,20.7,9.7,41.5,30.3,41.8c21.6,0.4,32.2-21.2,32.2-41.8c0-20.7-1.2-37.1-31.3-36.8
		C35,18.6,35.5,34.4,35.5,55.1z"/>
	<path id="Vector_5" class="st4" d="M67.2,6c36.7-11,33.7,18.6,34.8,38.3c0.3,6.1-2.9,16.2-4.8,20.6c-0.6,1.4-1.2,0.1-1.5,0.5
		c0.5-2.6,3.6-11.3,2.2-22.6C95,18.9,67.4,33,67.4,33s-28.8-13.8-30.7,9.4c-0.9,11.6,1.1,19.9,1.6,22.8c0.2,1-1.4-0.3-1.4-0.3
		c-2-4.8-3.3-10.4-4.4-16.8c-0.1-0.9-0.1-1.9-0.1-2.8v0C32.4,23.6,30.5,17,67.2,6z"/>
	<path id="Vector_6" class="st4" d="M37.9,63.5c0.3-0.7,6.9,23.2,13.3,24.4c6.3,1.2-0.5-5.4,1.1-7.9c1.6-2.5,8.4-6.1,10.9-5.2
		c1.7,0.6,2.2,1.6,3.8,1.6c1.6,0,2.2-0.9,3.8-1.6c2.4-1,9.3,2.6,10.9,5.2c1.6,2.5-5.3,8.9,1.1,7.9c6.4-1,13-22.5,13-22.5
		c3.4-2.4,1.4-4-2,18.4c-2.9,21.4-24.5,21.2-26.9,21.1c-2.3,0.1-24,0.3-26.9-21.1C37,61.2,34,61.2,37.9,63.5z M66.8,95.5
		c0,0,8.3-2.1,9.4-7.6c0.6-2.9,2.9-7.9,1.8-7.3c-1.1,0.6-11.1-1-11.1-1c0-0.1-0.1-0.3-0.1-0.3s0,0.2-0.1,0.3c0,0-9.7,1.6-11.1,1
		c-1.3-0.5,0.5,4.5,1.1,7.3C57.9,93.3,66.8,95.5,66.8,95.5z"/>
</g>
</svg>
