<svg width="24" height="32" viewBox="0 0 24 32" fill="none" xmlns="http://www.w3.org/2000/svg">
<g id="bookmark 1">
<g id="Vector">
<path d="M16 24H15.7969L12.0156 20.2031L8.20312 24H8C7.44791 24 6.97656 23.8047 6.58594 23.4141C6.19531 23.0234 6 22.5521 6 22V10C6 9.44791 6.19531 8.97656 6.58594 8.58594C6.97656 8.19531 7.44791 8 8 8H16C16.5521 8 17.0234 8.19531 17.4141 8.58594C17.8047 8.97656 18 9.44791 18 10V22C18 22.5521 17.8047 23.0234 17.4141 23.4141C17.0234 23.8047 16.5521 24 16 24ZM8 9C7.72917 9 7.49479 9.09896 7.29688 9.29688C7.09896 9.49479 7 9.72917 7 10V22C7 22.2396 7.07812 22.4531 7.23438 22.6406C7.39063 22.8281 7.58333 22.9427 7.8125 22.9844L12.0156 18.7969L16.1875 22.9844C16.4167 22.9427 16.6094 22.8281 16.7656 22.6406C16.9219 22.4531 17 22.2396 17 22V10C17 9.72917 16.901 9.49479 16.7031 9.29688C16.5052 9.09896 16.2708 9 16 9H8Z" fill="#007A91"/>
<path d="M16 24H15.7969L12.0156 20.2031L8.20312 24H8C7.44791 24 6.97656 23.8047 6.58594 23.4141C6.19531 23.0234 6 22.5521 6 22V10C6 9.44791 6.19531 8.97656 6.58594 8.58594C6.97656 8.19531 7.44791 8 8 8H16C16.5521 8 17.0234 8.19531 17.4141 8.58594C17.8047 8.97656 18 9.44791 18 10V22C18 22.5521 17.8047 23.0234 17.4141 23.4141C17.0234 23.8047 16.5521 24 16 24ZM8 9C7.72917 9 7.49479 9.09896 7.29688 9.29688C7.09896 9.49479 7 9.72917 7 10V22C7 22.2396 7.07812 22.4531 7.23438 22.6406C7.39063 22.8281 7.58333 22.9427 7.8125 22.9844L12.0156 18.7969L16.1875 22.9844C16.4167 22.9427 16.6094 22.8281 16.7656 22.6406C16.9219 22.4531 17 22.2396 17 22V10C17 9.72917 16.901 9.49479 16.7031 9.29688C16.5052 9.09896 16.2708 9 16 9H8Z" fill="black" fill-opacity="0.2"/>
<path d="M16 24H15.7969L12.0156 20.2031L8.20312 24H8C7.44791 24 6.97656 23.8047 6.58594 23.4141C6.19531 23.0234 6 22.5521 6 22V10C6 9.44791 6.19531 8.97656 6.58594 8.58594C6.97656 8.19531 7.44791 8 8 8H16C16.5521 8 17.0234 8.19531 17.4141 8.58594C17.8047 8.97656 18 9.44791 18 10V22C18 22.5521 17.8047 23.0234 17.4141 23.4141C17.0234 23.8047 16.5521 24 16 24ZM8 9C7.72917 9 7.49479 9.09896 7.29688 9.29688C7.09896 9.49479 7 9.72917 7 10V22C7 22.2396 7.07812 22.4531 7.23438 22.6406C7.39063 22.8281 7.58333 22.9427 7.8125 22.9844L12.0156 18.7969L16.1875 22.9844C16.4167 22.9427 16.6094 22.8281 16.7656 22.6406C16.9219 22.4531 17 22.2396 17 22V10C17 9.72917 16.901 9.49479 16.7031 9.29688C16.5052 9.09896 16.2708 9 16 9H8Z" fill="black" fill-opacity="0.2"/>
</g>
</g>
</svg>
