<?xml version="1.0" encoding="utf-8"?>
<!-- Generator: Adobe Illustrator 27.0.0, SVG Export Plug-In . SVG Version: 6.00 Build 0)  -->
<svg version="1.1" id="Ebene_1" xmlns="http://www.w3.org/2000/svg" xmlns:xlink="http://www.w3.org/1999/xlink" x="0px" y="0px"
	 viewBox="0 0 412.4 107" style="enable-background:new 0 0 412.4 107;" xml:space="preserve">
<style type="text/css">
	.st0{fill:#007B91;}
	.st1{clip-path:url(#SVGID_00000132795335708510841190000012776283489165641882_);fill:#007B91;}
	.st2{fill:#A3195B;}
	.st3{clip-path:url(#SVGID_00000080196967893197632510000018028786113558222225_);fill:#007B91;}
	.st4{clip-path:url(#SVGID_00000039831223789724529950000010314129346317573017_);fill:#007B91;}
	.st5{clip-path:url(#SVGID_00000123414914368670892800000013116485526926657977_);fill:#A3195B;}
</style>
<polygon class="st0" points="58.8,18.5 58.8,27.5 70.2,27.5 70.2,72.7 24.9,18.5 0.8,18.5 0.8,27.5 11.3,27.5 11.3,93.1 0.6,93.1 
	0.6,102.2 33.4,102.2 33.4,93.1 21.7,93.1 21.7,44.1 70.2,102.2 80.6,102.2 80.6,27.5 90.4,27.5 90.4,18.5 "/>
<g>
	<g>
		<defs>
			<rect id="SVGID_1_" x="0.6" y="3.8" width="409.9" height="100"/>
		</defs>
		<clipPath id="SVGID_00000176007687083850152210000006017318365173356170_">
			<use xlink:href="#SVGID_1_"  style="overflow:visible;"/>
		</clipPath>
		<path style="clip-path:url(#SVGID_00000176007687083850152210000006017318365173356170_);fill:#007B91;" d="M127.2,95.2
			c2.9,0,5.3-1,7.2-2.9c2-1.9,3.5-4.8,4.5-8.5c1.1-3.8,1.6-8.3,1.6-13.7c0-5.1-0.5-9.4-1.6-12.9c-1.1-3.5-2.6-6.2-4.5-8.1
			c-2-1.9-4.4-2.8-7.2-2.8c-2.9,0-5.3,1-7.3,2.9c-2,1.9-3.5,4.7-4.6,8.3c-1.1,3.6-1.6,8.1-1.6,13.3s0.5,9.7,1.6,13.3
			c1.1,3.6,2.6,6.4,4.6,8.3C121.9,94.2,124.4,95.2,127.2,95.2 M127.2,103.6c-6.8,0-12.7-1.3-17.8-3.9c-5.1-2.6-9.1-6.4-12-11.3
			c-2.9-4.9-4.3-10.8-4.3-17.7c0-7,1.4-12.9,4.3-17.7c2.9-4.9,6.8-8.6,12-11.2c5.1-2.6,11.1-3.9,17.8-3.9c6.8,0,12.7,1.3,17.8,3.9
			c5.1,2.6,9.1,6.4,12,11.2c2.9,4.9,4.4,10.8,4.4,17.7c0,6.9-1.5,12.8-4.4,17.7c-2.9,4.9-6.9,8.7-12,11.3
			C139.9,102.3,134,103.6,127.2,103.6"/>
	</g>
</g>
<polygon class="st2" points="192.5,101.9 170.6,47.8 164.3,47.8 164.3,38.8 200.6,38.8 200.6,47.8 190.2,47.8 205.4,89.1 200.9,89 
	217.2,47.8 206.9,47.8 206.9,38.8 233.6,38.8 233.6,47.8 227.4,47.8 205.4,101.9 "/>
<polygon class="st2" points="237.1,101.7 237.1,92.8 247.2,92.8 247.2,47.8 238,47.8 238,38.8 265.8,38.8 265.8,92.8 274.6,92.8 
	274.6,101.7 "/>
<g>
	<g>
		<defs>
			<rect id="SVGID_00000121256289259737808650000009570607511304789660_" x="1.1" y="3.4" width="409.9" height="100"/>
		</defs>
		<clipPath id="SVGID_00000005226356844234070390000013754848167086735550_">
			<use xlink:href="#SVGID_00000121256289259737808650000009570607511304789660_"  style="overflow:visible;"/>
		</clipPath>
		<path style="clip-path:url(#SVGID_00000005226356844234070390000013754848167086735550_);fill:#007B91;" d="M328.8,66.8
			c-3,0-5.5-0.8-7.3-2.3c-1.8-1.5-2.8-3.6-2.8-6c0-2.9,1.2-5.1,3.5-6.6s5.5-2.1,9.4-2v5.3c-0.6-1.8-1.5-3.5-2.8-5s-2.9-2.8-5-3.7
			c-2-0.9-4.5-1.3-7.5-1.3l-3.7-7.5c5.3,0,10,0.9,14,2.6c4,1.7,7.2,4,9.5,6.8c2.3,2.8,3.4,5.9,3.4,9.4c0,3.2-1,5.7-2.9,7.6
			S332.2,66.8,328.8,66.8 M311.8,103.3c-6.2,0-11.7-1.3-16.5-3.8c-4.8-2.5-8.5-6.3-11.2-11.3c-2.7-5-4-11-4-18c0-7,1.4-13,4.1-17.8
			c2.7-4.9,6.5-8.5,11.4-11c4.9-2.5,10.6-3.7,17.1-3.7l3.7,7.5c-4,0-7.3,1-10,2.9c-2.7,1.9-4.7,4.6-6,8s-2,7.3-2,11.7
			c0,4.3,0.7,8,2.1,11.3c1.4,3.3,3.4,5.8,6.1,7.7c2.6,1.8,5.8,2.8,9.5,2.8c2.5,0,4.6-0.4,6.5-1.2c1.9-0.8,3.5-1.8,4.8-3.1
			s2.4-2.8,3.2-4.5s1.3-3.4,1.6-5.2h8.2c-0.1,4-0.8,7.7-2,11.2c-1.3,3.4-3.1,6.4-5.5,8.9c-2.4,2.5-5.3,4.4-8.8,5.8
			C320.5,102.6,316.4,103.3,311.8,103.3"/>
	</g>
	<g>
		<defs>
			<rect id="SVGID_00000080894331639757227900000016406660894712382882_" x="1.1" y="3.4" width="409.9" height="100"/>
		</defs>
		<clipPath id="SVGID_00000164476581930029039200000005645784118984696750_">
			<use xlink:href="#SVGID_00000080894331639757227900000016406660894712382882_"  style="overflow:visible;"/>
		</clipPath>
		<path style="clip-path:url(#SVGID_00000164476581930029039200000005645784118984696750_);fill:#007B91;" d="M392.5,61.3
			c0-3-0.4-5.7-1.3-8s-2.1-4.1-3.7-5.5c-1.6-1.3-3.6-2-6-2l-0.4-8.3c6.5,0,11.9,1.3,16.3,3.8c4.4,2.5,7.8,6,10.1,10.4
			c2.3,4.4,3.5,9.5,3.5,15.3L392.5,61.3z M358.5,69.7v-8.5h34l18.5,5.6v2.8H358.5z M381.1,103.1c-6.3,0-11.8-1.3-16.6-3.9
			c-4.8-2.6-8.5-6.4-11.2-11.2c-2.7-4.9-4-10.7-4-17.6c0-7,1.3-12.9,4-17.7c2.7-4.9,6.4-8.6,11.2-11.2c4.8-2.6,10.3-3.9,16.6-3.9
			l0.4,8.3c-2.7,0-5.1,0.8-7.1,2.3c-2,1.5-3.6,3.9-4.8,7.2c-1.1,3.3-1.7,7.8-1.7,13.3c0,6.7,1.6,12,4.8,15.8
			c3.2,3.8,7.7,5.7,13.5,5.7c3.5,0,6.4-0.7,8.8-2.1c2.3-1.4,4.1-3.2,5.3-5.5c1.2-2.3,2-4.7,2.3-7.1h8.3c-0.1,3.7-0.8,7.2-2,10.5
			c-1.3,3.3-3.2,6.3-5.6,8.8c-2.5,2.6-5.6,4.6-9.3,6.1S386,103.1,381.1,103.1"/>
	</g>
	<g>
		<defs>
			<rect id="SVGID_00000049186476817981734080000006819761060393563028_" x="1.1" y="3.4" width="409.9" height="100"/>
		</defs>
		<clipPath id="SVGID_00000072266800839167160330000014581491845196564152_">
			<use xlink:href="#SVGID_00000049186476817981734080000006819761060393563028_"  style="overflow:visible;"/>
		</clipPath>
		<path style="clip-path:url(#SVGID_00000072266800839167160330000014581491845196564152_);fill:#A3195B;" d="M266.4,11.8l0.1,0.8
			v0.7V14c0,1.8-0.3,3.5-1,5c-0.7,1.5-1.6,2.8-2.9,3.9c-1.2,1.1-2.7,1.9-4.4,2.5c-1.7,0.6-3.5,0.9-5.5,0.9h-1.8h-1
			c1.1,1.1,2.3,1.9,3.6,2.5c1.3,0.6,2.9,0.9,4.6,0.9c0.4,0,0.8,0,1.1,0c0.4,0,0.7-0.1,1.1-0.1l5.2,3.2v-5.2c0.7-0.5,1.3-1,1.9-1.6
			c0.6-0.6,1.1-1.3,1.4-2c0.4-0.7,0.7-1.4,0.9-2.2c0.2-0.8,0.3-1.6,0.3-2.4c0-1.5-0.3-2.9-1-4.2C268.4,13.9,267.5,12.7,266.4,11.8
			 M250.4,24.3c0.4,0.1,0.9,0.1,1.5,0.2c0.7,0,1.2,0.1,1.6,0.1c1.6,0,3.2-0.3,4.5-0.9c1.4-0.6,2.5-1.3,3.5-2.3c1-1,1.7-2.1,2.2-3.4
			c0.5-1.3,0.8-2.7,0.8-4.1c0-1.4-0.3-2.8-0.9-4.1c-0.6-1.3-1.5-2.4-2.5-3.3c-1-0.9-2.2-1.7-3.5-2.2c-1.3-0.6-2.7-0.8-4-0.8
			c-1.6,0-3.2,0.3-4.7,0.8c-1.5,0.5-2.7,1.3-3.8,2.2c-1.1,0.9-1.9,2.1-2.6,3.3c-0.6,1.3-0.9,2.6-0.9,4.1c0,1.7,0.3,3.2,0.9,4.6
			c0.6,1.4,1.5,2.6,2.7,3.7v5.2L250.4,24.3z M258.6,12.6c0.4,0,0.7,0.1,1,0.4c0.3,0.3,0.4,0.6,0.4,1c0,0.4-0.1,0.7-0.4,1
			c-0.3,0.3-0.6,0.4-1,0.4c-0.4,0-0.7-0.1-1-0.4s-0.4-0.6-0.4-1c0-0.4,0.1-0.7,0.4-1C257.9,12.7,258.2,12.6,258.6,12.6 M253.1,12.6
			c0.4,0,0.7,0.1,1,0.4c0.3,0.3,0.4,0.6,0.4,1c0,0.4-0.1,0.7-0.4,1c-0.3,0.3-0.6,0.4-1,0.4s-0.7-0.1-1-0.4c-0.3-0.3-0.4-0.6-0.4-1
			c0-0.4,0.1-0.7,0.4-1C252.4,12.7,252.7,12.6,253.1,12.6 M247.6,12.6c0.4,0,0.7,0.1,1,0.4c0.3,0.3,0.4,0.6,0.4,1
			c0,0.4-0.1,0.7-0.4,1c-0.3,0.3-0.6,0.4-1,0.4s-0.7-0.1-1-0.4s-0.4-0.6-0.4-1c0-0.4,0.1-0.7,0.4-1
			C246.8,12.7,247.2,12.6,247.6,12.6"/>
	</g>
</g>
</svg>
