<svg width="16" height="16" viewBox="0 0 16 16" fill="none" xmlns="http://www.w3.org/2000/svg">
<g id="user alt 1" clip-path="url(#clip0_581_2330)">
<g id="Vector">
<path d="M8 9C8.8125 9 9.5625 8.80209 10.25 8.40625C10.9375 8.01041 11.4896 7.45834 11.9062 6.75C12.3021 6.04166 12.5 5.29167 12.5 4.5C12.5 3.70833 12.3021 2.95834 11.9062 2.25C11.4896 1.54166 10.9375 0.989586 10.25 0.59375C9.5625 0.197915 8.8125 0 8 0C7.1875 0 6.4375 0.197915 5.75 0.59375C5.0625 0.989586 4.51042 1.54166 4.09375 2.25C3.69791 2.95834 3.5 3.70833 3.5 4.5C3.5 5.29167 3.69791 6.04166 4.09375 6.75C4.51042 7.45834 5.0625 8.01041 5.75 8.40625C6.4375 8.80209 7.1875 9 8 9ZM5.03125 10C3.61458 10.0417 2.42709 10.5312 1.46875 11.4688C0.531246 12.4271 0.041667 13.6146 0 15.0312C0 15.3021 0.093749 15.5312 0.28125 15.7188C0.468751 15.9063 0.697915 16 0.96875 16H15.0312C15.3021 16 15.5312 15.9063 15.7188 15.7188C15.9063 15.5312 16 15.3021 16 15.0312C15.9583 13.6146 15.4688 12.4271 14.5312 11.4688C13.5729 10.5312 12.3854 10.0417 10.9688 10H5.03125Z" fill="#007A91"/>
<path d="M8 9C8.8125 9 9.5625 8.80209 10.25 8.40625C10.9375 8.01041 11.4896 7.45834 11.9062 6.75C12.3021 6.04166 12.5 5.29167 12.5 4.5C12.5 3.70833 12.3021 2.95834 11.9062 2.25C11.4896 1.54166 10.9375 0.989586 10.25 0.59375C9.5625 0.197915 8.8125 0 8 0C7.1875 0 6.4375 0.197915 5.75 0.59375C5.0625 0.989586 4.51042 1.54166 4.09375 2.25C3.69791 2.95834 3.5 3.70833 3.5 4.5C3.5 5.29167 3.69791 6.04166 4.09375 6.75C4.51042 7.45834 5.0625 8.01041 5.75 8.40625C6.4375 8.80209 7.1875 9 8 9ZM5.03125 10C3.61458 10.0417 2.42709 10.5312 1.46875 11.4688C0.531246 12.4271 0.041667 13.6146 0 15.0312C0 15.3021 0.093749 15.5312 0.28125 15.7188C0.468751 15.9063 0.697915 16 0.96875 16H15.0312C15.3021 16 15.5312 15.9063 15.7188 15.7188C15.9063 15.5312 16 15.3021 16 15.0312C15.9583 13.6146 15.4688 12.4271 14.5312 11.4688C13.5729 10.5312 12.3854 10.0417 10.9688 10H5.03125Z" fill="black" fill-opacity="0.2"/>
<path d="M8 9C8.8125 9 9.5625 8.80209 10.25 8.40625C10.9375 8.01041 11.4896 7.45834 11.9062 6.75C12.3021 6.04166 12.5 5.29167 12.5 4.5C12.5 3.70833 12.3021 2.95834 11.9062 2.25C11.4896 1.54166 10.9375 0.989586 10.25 0.59375C9.5625 0.197915 8.8125 0 8 0C7.1875 0 6.4375 0.197915 5.75 0.59375C5.0625 0.989586 4.51042 1.54166 4.09375 2.25C3.69791 2.95834 3.5 3.70833 3.5 4.5C3.5 5.29167 3.69791 6.04166 4.09375 6.75C4.51042 7.45834 5.0625 8.01041 5.75 8.40625C6.4375 8.80209 7.1875 9 8 9ZM5.03125 10C3.61458 10.0417 2.42709 10.5312 1.46875 11.4688C0.531246 12.4271 0.041667 13.6146 0 15.0312C0 15.3021 0.093749 15.5312 0.28125 15.7188C0.468751 15.9063 0.697915 16 0.96875 16H15.0312C15.3021 16 15.5312 15.9063 15.7188 15.7188C15.9063 15.5312 16 15.3021 16 15.0312C15.9583 13.6146 15.4688 12.4271 14.5312 11.4688C13.5729 10.5312 12.3854 10.0417 10.9688 10H5.03125Z" fill="black" fill-opacity="0.2"/>
</g>
</g>
<defs>
<clipPath id="clip0_581_2330">
<rect width="16" height="16" fill="white"/>
</clipPath>
</defs>
</svg>
